<?xml version="1.0" encoding="UTF-8" standalone="no"?><!DOCTYPE svg PUBLIC "-//W3C//DTD SVG 1.1//EN" "http://www.w3.org/Graphics/SVG/1.1/DTD/svg11.dtd"><svg width="100%" height="100%" viewBox="0 0 779 669" version="1.1" xmlns="http://www.w3.org/2000/svg" xmlns:xlink="http://www.w3.org/1999/xlink" xml:space="preserve" xmlns:serif="http://www.serif.com/" style="fill-rule:evenodd;clip-rule:evenodd;stroke-linejoin:round;stroke-miterlimit:2;"><g><g><path d="M227.677,634.152c34.301,-0.469 66.152,-7.712 97.186,-20.239c31.034,-12.527 58.801,-31.061 82.485,-54.077c23.684,-23.773 42.468,-52.018 56.351,-85.49c13.884,-33.473 21.234,-71.395 21.234,-113.755c0,-41.604 -7.35,-79.325 -20.417,-113.186c-13.884,-33.849 -33.484,-63.082 -57.985,-87.71c-23.683,-23.882 -52.267,-42.402 -85.752,-55.561c-32.667,-12.413 -67.784,-18.741 -105.352,-18.227c-27.767,0.379 -53.085,3.751 -75.952,10.871c-22.05,6.353 -44.101,15.731 -64.518,27.357l-16.334,-24.739l-31.85,0.435l-3.267,186.883l32.667,-0.447c4.084,-18.21 10.617,-37.966 18.784,-59.258c8.984,-21.303 18.784,-39.591 30.217,-54.876c13.067,-16.82 27.768,-29.88 45.735,-39.959c17.15,-9.311 37.567,-14.885 59.618,-15.187c26.134,-0.357 49.818,4.615 71.868,15.66c22.051,10.289 41.651,25.149 57.985,46.106c15.517,19.455 26.951,45.018 35.934,75.152c8.984,30.891 13.067,64.875 13.067,103.453c0,33.283 -4.083,64.352 -13.884,91.718c-8.983,28.11 -22.05,53.251 -39.201,74.666c-16.333,21.403 -36.75,37.567 -60.434,49.993c-22.867,12.416 -49.001,18.068 -77.585,18.458c-21.234,0.29 -40.835,-2.468 -59.618,-8.262c-17.968,-5.806 -33.485,-13.915 -46.552,-24.327c-13.066,-10.411 -25.317,-23.103 -35.117,-36.585c-9.8,-13.482 -17.967,-28.499 -24.501,-44.295l-30.217,13.273c22.867,51.881 53.085,88.533 90.652,109.956c38.384,22.169 82.485,32.913 134.753,32.199Z" style="fill:#fff;fill-rule:nonzero;"/><path d="M75.304,122.686c9.909,-5.609 20.194,-10.69 30.672,-15.155c10.921,-4.654 22.051,-8.639 33.158,-11.849c11.922,-3.723 24.508,-6.433 37.758,-8.235c12.27,-1.668 25.109,-2.558 38.518,-2.752c18.518,-0.27 36.443,1.117 53.778,4.068c17.989,3.062 35.343,7.808 52.073,14.146c16.543,6.48 31.897,14.265 46.065,23.35c14.68,9.414 28.085,20.225 40.215,32.432c12.494,12.527 23.724,26.246 33.585,41.154c9.609,14.526 17.918,30.182 24.84,47.001c6.816,17.596 12.096,36.233 15.613,55.913c3.282,18.367 5.028,37.644 5.054,57.832c0.025,20.447 -1.655,39.867 -4.948,58.259c-3.57,19.942 -9.037,38.676 -16.281,56.203c-6.829,16.527 -14.847,31.791 -24.05,45.883c-9.581,14.671 -20.446,28.072 -32.62,40.326c-11.954,11.649 -24.944,22.164 -38.868,31.35c-13.847,9.136 -28.616,16.957 -44.206,23.276c-15.716,6.37 -31.642,11.391 -47.988,14.878c-16.176,3.451 -32.763,5.398 -49.964,5.657c-25.18,0.309 -48.476,-2.022 -70.156,-6.983c-23.698,-5.423 -45.47,-13.988 -65.656,-25.684c-20.343,-11.635 -38.551,-27.684 -54.613,-48.163c-13.841,-17.648 -26.092,-38.591 -36.741,-62.834c-0.202,-0.459 -0.214,-0.98 -0.032,-1.447c0.182,-0.468 0.542,-0.844 1.002,-1.046c0,0 30.234,-13.234 30.234,-13.234c0.455,-0.2 0.972,-0.208 1.433,-0.023c0.461,0.186 0.829,0.55 1.019,1.009c3.209,7.788 6.819,15.386 10.829,22.702c4.059,7.405 8.527,14.52 13.406,21.25c4.848,6.687 10.304,13.179 16.165,19.291c5.857,6.107 12.117,11.835 18.581,16.999c6.646,5.308 13.935,10.013 21.869,14.114c7.47,3.862 15.509,7.19 24.098,9.977c9.489,2.941 19.189,5.1 29.208,6.474c9.641,1.322 19.576,1.918 29.901,1.789c13.817,-0.173 27.059,-1.585 39.631,-4.411c13.197,-2.966 25.655,-7.491 37.283,-13.787c11.77,-6.159 22.729,-13.246 32.776,-21.451c10.021,-8.184 19.134,-17.48 27.257,-28.1c8.692,-10.828 16.333,-22.618 22.92,-35.271c6.352,-12.201 11.725,-25.204 16.137,-38.962c5.055,-14.074 8.588,-29.135 10.826,-44.979c2.092,-14.806 3.054,-30.293 3.069,-46.295c0.017,-18.342 -0.891,-35.643 -2.815,-52.066c-2.111,-18.009 -5.443,-34.961 -10.11,-51.063c-4.196,-14.111 -8.931,-27.218 -14.375,-39.159c-6.125,-13.435 -13.147,-25.394 -21.321,-35.657c-7.927,-10.185 -16.63,-18.923 -26.015,-26.389c-9.81,-7.805 -20.364,-14.221 -31.58,-19.464c-11.116,-5.578 -22.651,-9.602 -34.713,-12.165c-11.702,-2.487 -23.898,-3.599 -36.685,-3.43c-10.613,0.141 -20.846,1.511 -30.513,3.939c-10.266,2.579 -19.895,6.35 -28.653,11.1c-9.006,5.05 -17.188,10.854 -24.751,17.512c-7.432,6.543 -14.268,13.91 -20.696,22.181c-5.97,7.978 -11.493,16.777 -16.685,26.402c-4.718,8.745 -9.161,18.17 -13.409,28.246c-3.872,10.098 -7.376,19.849 -10.425,29.254c-3.365,10.383 -6.175,20.342 -8.311,29.876c-0.096,0.427 -0.473,0.733 -0.911,0.739l-32.667,0.456c-0.259,0.004 -0.508,-0.098 -0.691,-0.281c-0.183,-0.183 -0.283,-0.433 -0.279,-0.692c0,0 3.173,-186.885 3.173,-186.885c0.01,-0.567 0.469,-1.024 1.036,-1.032l31.851,-0.453c0.364,-0.005 0.706,0.175 0.907,0.48l15.788,23.879Zm-70.533,370.275c10.386,23.163 22.259,43.224 35.629,60.182c15.768,19.999 33.616,35.672 53.562,47.013c19.864,11.436 41.268,19.785 64.554,25.045c21.371,4.828 44.326,7.053 69.13,6.679c16.903,-0.207 33.208,-2.074 49.114,-5.42c16.109,-3.388 31.809,-8.292 47.306,-14.522c15.349,-6.17 29.895,-13.821 43.537,-22.767c13.736,-9.006 26.557,-19.323 38.337,-30.738c11.999,-12.011 22.736,-25.175 32.21,-39.596c9.117,-13.875 17.064,-28.913 23.845,-45.198c7.191,-17.277 12.629,-35.75 16.201,-55.418c3.304,-18.189 5.012,-37.4 5.038,-57.63c0.025,-19.986 -1.655,-39.073 -4.859,-57.264c-3.431,-19.481 -8.609,-37.934 -15.297,-55.332c-6.792,-16.619 -14.97,-32.123 -24.436,-46.511c-9.718,-14.769 -20.793,-28.364 -33.122,-40.786c-11.964,-12.089 -25.189,-22.8 -39.677,-32.133c-14.003,-9.022 -29.185,-16.756 -45.531,-23.199c-16.55,-6.308 -33.732,-11.048 -51.55,-14.117c-17.183,-2.959 -34.956,-4.364 -53.318,-4.13c-13.31,0.17 -26.055,1.031 -38.236,2.667c-13.119,1.761 -25.583,4.422 -37.415,8.095c-11.049,3.173 -22.099,7.108 -32.942,11.708c-10.72,4.547 -21.239,9.742 -31.355,15.492c-0.499,0.283 -1.131,0.132 -1.447,-0.347l-15.996,-24.262l-30.248,0.396l-3.325,184.876l30.936,-0.413c2.129,-9.365 4.899,-19.137 8.201,-29.313c3.061,-9.434 6.578,-19.216 10.476,-29.373c4.286,-10.162 8.759,-19.639 13.503,-28.434c5.237,-9.71 10.806,-18.59 16.836,-26.654c6.51,-8.384 13.425,-15.838 20.942,-22.46c7.66,-6.748 15.946,-12.632 25.081,-17.759c8.901,-4.838 18.677,-8.677 29.102,-11.305c9.806,-2.472 20.188,-3.872 30.957,-4.024c12.938,-0.182 25.28,0.936 37.124,3.439c12.233,2.585 23.935,6.646 35.189,12.273c11.344,5.284 22.045,11.77 31.994,19.662c9.523,7.555 18.357,16.399 26.398,26.701c8.285,10.372 15.419,22.471 21.641,36.069c5.502,12.023 10.292,25.219 14.541,39.436c4.733,16.219 8.119,33.29 10.277,51.427c1.965,16.508 2.913,33.901 2.93,52.342c0.016,16.122 -0.925,31.728 -3.005,46.649c-2.233,16.028 -5.781,31.268 -10.853,45.469c-4.418,13.87 -9.827,27.022 -16.222,39.367c-6.646,12.829 -14.358,24.788 -23.117,35.749c-8.216,10.792 -17.462,20.265 -27.634,28.611c-10.18,8.352 -21.289,15.573 -33.204,21.842c-11.838,6.444 -24.545,11.094 -38.011,14.152c-12.769,2.9 -26.223,4.368 -40.264,4.575c-10.488,0.156 -20.582,-0.428 -30.378,-1.748c-10.202,-1.374 -20.082,-3.546 -29.77,-6.521c-8.796,-2.83 -17.011,-6.208 -24.647,-10.131c-8.148,-4.186 -15.637,-8.995 -22.467,-14.423c-6.595,-5.241 -12.984,-11.056 -18.963,-17.259c-5.99,-6.215 -11.567,-12.818 -16.526,-19.622c-4.985,-6.839 -9.552,-14.07 -13.703,-21.598c-3.792,-6.876 -7.235,-13.999 -10.33,-21.295l-26.743,11.786Z"/><path d="M229.813,642.17c34.301,-0.469 66.152,-7.712 97.186,-20.239c31.034,-12.527 58.801,-31.06 82.485,-54.077c23.684,-23.773 42.468,-52.017 56.351,-85.49c13.884,-33.473 21.234,-71.395 21.234,-113.755c0,-41.603 -7.35,-79.325 -20.417,-113.185c-13.884,-33.85 -33.484,-63.083 -57.985,-87.711c-23.683,-23.882 -52.267,-42.402 -85.752,-55.56c-32.667,-12.413 -67.785,-18.741 -105.352,-18.228c-27.767,0.379 -53.085,3.751 -75.952,10.871c-22.05,6.353 -44.101,15.732 -64.518,27.357l-16.334,-24.739l-31.85,0.435l-3.267,186.883l32.667,-0.446c4.084,-18.21 10.617,-37.967 18.784,-59.258c8.984,-21.303 18.784,-39.591 30.217,-54.876c13.067,-16.82 27.768,-29.88 45.735,-39.96c17.15,-9.311 37.567,-14.885 59.618,-15.186c26.134,-0.357 49.818,4.614 71.868,15.659c22.051,10.289 41.651,25.15 57.985,46.107c15.517,19.455 26.95,45.017 35.934,75.152c8.984,30.891 13.067,64.874 13.067,103.452c0,33.283 -4.083,64.353 -13.884,91.718c-8.983,28.111 -22.05,53.251 -39.201,74.666c-16.333,21.403 -36.75,37.567 -60.434,49.994c-22.868,12.415 -49.001,18.067 -77.585,18.458c-21.234,0.29 -40.835,-2.468 -59.618,-8.263c-17.968,-5.806 -33.485,-13.915 -46.552,-24.326c-13.067,-10.412 -25.317,-23.104 -35.117,-36.585c-9.8,-13.482 -17.967,-28.499 -24.501,-44.295l-30.217,13.272c22.867,51.881 53.085,88.534 90.652,109.957c38.384,22.168 82.485,32.912 134.753,32.198Z" style="fill:#fff;fill-rule:nonzero;"/><path d="M77.44,130.704c9.909,-5.609 20.194,-10.69 30.672,-15.155c10.921,-4.653 22.051,-8.638 33.158,-11.848c11.922,-3.723 24.508,-6.433 37.758,-8.235c12.27,-1.669 25.109,-2.558 38.518,-2.753c18.518,-0.27 36.443,1.118 53.778,4.068c17.989,3.062 35.343,7.808 52.073,14.146c16.543,6.481 31.897,14.265 46.065,23.35c14.68,9.414 28.085,20.226 40.215,32.432c12.494,12.528 23.723,26.246 33.585,41.155c9.609,14.525 17.918,30.181 24.84,47c6.816,17.597 12.096,36.233 15.613,55.913c3.282,18.367 5.028,37.644 5.054,57.832c0.025,20.447 -1.655,39.867 -4.948,58.26c-3.571,19.941 -9.037,38.676 -16.281,56.202c-6.829,16.528 -14.847,31.792 -24.05,45.883c-9.581,14.671 -20.446,28.072 -32.62,40.326c-11.954,11.65 -24.944,22.164 -38.868,31.35c-13.847,9.136 -28.616,16.957 -44.206,23.276c-15.716,6.37 -31.642,11.392 -47.988,14.879c-16.176,3.451 -32.764,5.397 -49.964,5.657c-25.18,0.309 -48.476,-2.022 -70.156,-6.984c-23.698,-5.423 -45.47,-13.987 -65.656,-25.683c-20.343,-11.636 -38.551,-27.685 -54.613,-48.163c-13.841,-17.649 -26.092,-38.591 -36.741,-62.835c-0.202,-0.459 -0.214,-0.979 -0.032,-1.447c0.182,-0.468 0.542,-0.844 1.002,-1.046l30.234,-13.234c0.455,-0.2 0.972,-0.208 1.433,-0.022c0.461,0.185 0.828,0.549 1.019,1.008c3.209,7.789 6.819,15.387 10.829,22.703c4.058,7.404 8.527,14.519 13.406,21.249c4.848,6.688 10.304,13.18 16.165,19.292c5.857,6.107 12.117,11.834 18.581,16.998c6.645,5.309 13.935,10.013 21.868,14.115c7.471,3.862 15.51,7.189 24.099,9.977c9.489,2.94 19.189,5.099 29.208,6.473c9.641,1.323 19.576,1.919 29.901,1.789c13.817,-0.173 27.059,-1.584 39.631,-4.41c13.197,-2.967 25.655,-7.491 37.283,-13.788c11.77,-6.158 22.729,-13.246 32.776,-21.451c10.021,-8.184 19.133,-17.48 27.257,-28.1c8.692,-10.828 16.333,-22.618 22.92,-35.271c6.352,-12.201 11.725,-25.204 16.137,-38.961c5.055,-14.074 8.588,-29.136 10.826,-44.979c2.092,-14.806 3.054,-30.294 3.069,-46.296c0.017,-18.341 -0.891,-35.642 -2.815,-52.065c-2.111,-18.009 -5.443,-34.962 -10.11,-51.064c-4.196,-14.111 -8.931,-27.217 -14.375,-39.159c-6.126,-13.435 -13.148,-25.394 -21.321,-35.656c-7.927,-10.185 -16.63,-18.923 -26.015,-26.39c-9.81,-7.804 -20.364,-14.22 -31.58,-19.464c-11.116,-5.578 -22.651,-9.602 -34.713,-12.165c-11.702,-2.487 -23.898,-3.598 -36.685,-3.429c-10.613,0.14 -20.846,1.511 -30.513,3.939c-10.267,2.579 -19.895,6.35 -28.653,11.099c-9.007,5.05 -17.188,10.854 -24.751,17.512c-7.432,6.543 -14.268,13.91 -20.696,22.181c-5.97,7.978 -11.493,16.778 -16.685,26.402c-4.718,8.745 -9.161,18.17 -13.409,28.247c-3.872,10.097 -7.376,19.849 -10.425,29.254c-3.365,10.382 -6.175,20.341 -8.311,29.875c-0.096,0.427 -0.473,0.733 -0.911,0.739l-32.667,0.457c-0.259,0.003 -0.508,-0.098 -0.691,-0.282c-0.183,-0.183 -0.283,-0.433 -0.279,-0.692l3.173,-186.884c0.01,-0.568 0.469,-1.025 1.036,-1.033l31.851,-0.453c0.364,-0.005 0.706,0.176 0.907,0.48l15.788,23.879Zm-70.533,370.275c10.386,23.163 22.259,43.225 35.629,60.182c15.768,19.999 33.616,35.673 53.562,47.013c19.864,11.436 41.268,19.785 64.554,25.045c21.371,4.828 44.326,7.053 69.13,6.679c16.903,-0.207 33.208,-2.073 49.114,-5.419c16.109,-3.389 31.809,-8.293 47.306,-14.522c15.349,-6.171 29.895,-13.822 43.537,-22.767c13.736,-9.007 26.556,-19.324 38.337,-30.739c11.999,-12.01 22.736,-25.175 32.21,-39.595c9.117,-13.876 17.064,-28.913 23.845,-45.199c7.191,-17.276 12.629,-35.749 16.201,-55.417c3.304,-18.19 5.012,-37.4 5.038,-57.631c0.025,-19.985 -1.655,-39.072 -4.859,-57.264c-3.431,-19.481 -8.609,-37.934 -15.297,-55.332c-6.792,-16.619 -14.97,-32.123 -24.436,-46.511c-9.718,-14.769 -20.793,-28.363 -33.122,-40.786c-11.964,-12.089 -25.189,-22.8 -39.677,-32.133c-14.003,-9.021 -29.185,-16.756 -45.531,-23.199c-16.55,-6.308 -33.732,-11.048 -51.55,-14.116c-17.183,-2.96 -34.956,-4.365 -53.318,-4.131c-13.31,0.171 -26.055,1.031 -38.236,2.667c-13.119,1.762 -25.583,4.422 -37.415,8.095c-11.049,3.173 -22.099,7.109 -32.942,11.708c-10.72,4.547 -21.239,9.743 -31.355,15.492c-0.499,0.284 -1.131,0.132 -1.447,-0.346l-15.996,-24.262l-30.248,0.396l-3.325,184.875l30.936,-0.412c2.129,-9.365 4.899,-19.137 8.201,-29.313c3.061,-9.434 6.578,-19.216 10.476,-29.374c4.286,-10.161 8.759,-19.638 13.503,-28.434c5.237,-9.71 10.805,-18.59 16.836,-26.654c6.51,-8.383 13.425,-15.838 20.942,-22.46c7.66,-6.748 15.946,-12.632 25.081,-17.759c8.901,-4.838 18.677,-8.676 29.102,-11.304c9.806,-2.472 20.188,-3.873 30.956,-4.024c12.939,-0.183 25.281,0.936 37.125,3.438c12.233,2.585 23.935,6.646 35.189,12.274c11.344,5.283 22.045,11.77 31.994,19.662c9.523,7.555 18.357,16.398 26.398,26.7c8.285,10.373 15.419,22.472 21.641,36.07c5.502,12.022 10.292,25.218 14.541,39.436c4.732,16.219 8.118,33.289 10.277,51.426c1.965,16.509 2.913,33.901 2.93,52.342c0.016,16.122 -0.925,31.728 -3.005,46.649c-2.233,16.029 -5.781,31.268 -10.853,45.469c-4.418,13.871 -9.827,27.022 -16.222,39.367c-6.646,12.83 -14.358,24.788 -23.117,35.75c-8.216,10.791 -17.462,20.265 -27.634,28.61c-10.18,8.352 -21.289,15.573 -33.204,21.842c-11.838,6.444 -24.545,11.094 -38.011,14.152c-12.77,2.901 -26.223,4.368 -40.264,4.576c-10.488,0.155 -20.582,-0.429 -30.378,-1.748c-10.203,-1.374 -20.082,-3.546 -29.77,-6.521c-8.796,-2.831 -17.011,-6.208 -24.647,-10.132c-8.148,-4.186 -15.637,-8.994 -22.467,-14.422c-6.595,-5.241 -12.985,-11.057 -18.963,-17.26c-5.99,-6.214 -11.567,-12.818 -16.526,-19.621c-4.985,-6.839 -9.553,-14.071 -13.703,-21.598c-3.792,-6.876 -7.236,-13.999 -10.33,-21.296l-26.743,11.786Z"/><path d="M231.949,650.188c34.301,-0.468 66.152,-7.711 97.186,-20.238c31.034,-12.527 58.801,-31.061 82.485,-54.077c23.684,-23.773 42.468,-52.018 56.351,-85.491c13.884,-33.472 21.234,-71.394 21.234,-113.754c0,-41.604 -7.35,-79.325 -20.417,-113.186c-13.884,-33.85 -33.484,-63.083 -57.985,-87.71c-23.684,-23.882 -52.268,-42.403 -85.752,-55.561c-32.667,-12.413 -67.785,-18.741 -105.352,-18.228c-27.767,0.38 -53.085,3.751 -75.952,10.872c-22.05,6.352 -44.101,15.731 -64.518,27.356l-16.334,-24.739l-31.85,0.435l-3.267,186.884l32.667,-0.447c4.084,-18.21 10.617,-37.966 18.784,-59.258c8.984,-21.303 18.784,-39.591 30.217,-54.876c13.067,-16.82 27.768,-29.88 45.735,-39.959c17.15,-9.312 37.567,-14.886 59.618,-15.187c26.134,-0.357 49.818,4.614 71.868,15.66c22.051,10.288 41.651,25.149 57.985,46.106c15.517,19.455 26.95,45.018 35.934,75.152c8.984,30.891 13.067,64.875 13.067,103.453c0,33.283 -4.083,64.352 -13.884,91.717c-8.983,28.111 -22.05,53.252 -39.201,74.666c-16.333,21.403 -36.75,37.567 -60.434,49.994c-22.868,12.415 -49.001,18.067 -77.585,18.458c-21.234,0.29 -40.835,-2.468 -59.619,-8.263c-17.967,-5.806 -33.484,-13.914 -46.551,-24.326c-13.067,-10.411 -25.317,-23.103 -35.117,-36.585c-9.8,-13.482 -17.967,-28.499 -24.501,-44.295l-30.217,13.272c22.867,51.882 53.085,88.534 90.652,109.957c38.384,22.169 82.485,32.912 134.753,32.198Z" style="fill:#fff;fill-rule:nonzero;"/><path d="M79.576,138.722c9.909,-5.609 20.194,-10.689 30.672,-15.154c10.921,-4.654 22.051,-8.639 33.158,-11.849c11.922,-3.723 24.508,-6.433 37.758,-8.235c12.269,-1.668 25.109,-2.558 38.518,-2.753c18.518,-0.269 36.443,1.118 53.778,4.069c17.989,3.062 35.343,7.808 52.073,14.145c16.543,6.481 31.897,14.265 46.065,23.351c14.679,9.413 28.085,20.225 40.215,32.431c12.493,12.528 23.723,26.246 33.585,41.155c9.609,14.526 17.918,30.182 24.84,47c6.816,17.597 12.096,36.233 15.613,55.913c3.282,18.368 5.028,37.644 5.054,57.833c0.025,20.446 -1.655,39.867 -4.948,58.259c-3.571,19.942 -9.037,38.676 -16.281,56.202c-6.829,16.528 -14.847,31.792 -24.05,45.884c-9.581,14.671 -20.446,28.071 -32.62,40.325c-11.954,11.65 -24.945,22.164 -38.868,31.351c-13.847,9.135 -28.616,16.957 -44.206,23.276c-15.716,6.369 -31.642,11.391 -47.988,14.878c-16.176,3.451 -32.764,5.398 -49.964,5.657c-25.18,0.309 -48.476,-2.022 -70.156,-6.983c-23.698,-5.424 -45.47,-13.988 -65.656,-25.684c-20.343,-11.635 -38.552,-27.685 -54.613,-48.163c-13.841,-17.649 -26.092,-38.591 -36.741,-62.834c-0.202,-0.459 -0.214,-0.98 -0.032,-1.448c0.182,-0.467 0.542,-0.844 1.002,-1.045c0,0 30.234,-13.234 30.234,-13.234c0.455,-0.2 0.972,-0.208 1.433,-0.023c0.461,0.186 0.828,0.549 1.018,1.009c3.21,7.788 6.82,15.386 10.83,22.702c4.058,7.404 8.527,14.52 13.406,21.25c4.848,6.687 10.304,13.179 16.165,19.291c5.857,6.107 12.117,11.835 18.581,16.998c6.645,5.309 13.935,10.014 21.868,14.115c7.471,3.862 15.51,7.19 24.099,9.977c9.489,2.941 19.189,5.1 29.208,6.474c9.641,1.322 19.576,1.918 29.901,1.789c13.817,-0.174 27.059,-1.585 39.631,-4.411c13.197,-2.966 25.655,-7.491 37.283,-13.787c11.77,-6.159 22.729,-13.246 32.776,-21.451c10.021,-8.185 19.133,-17.481 27.257,-28.1c8.692,-10.829 16.333,-22.619 22.92,-35.272c6.352,-12.201 11.725,-25.204 16.137,-38.961c5.055,-14.074 8.588,-29.136 10.826,-44.979c2.092,-14.806 3.053,-30.293 3.069,-46.295c0.017,-18.342 -0.891,-35.643 -2.815,-52.066c-2.111,-18.009 -5.443,-34.961 -10.11,-51.063c-4.196,-14.112 -8.931,-27.218 -14.375,-39.16c-6.126,-13.434 -13.148,-25.393 -21.321,-35.656c-7.927,-10.185 -16.63,-18.923 -26.015,-26.39c-9.81,-7.804 -20.364,-14.22 -31.58,-19.463c-11.116,-5.578 -22.651,-9.602 -34.713,-12.165c-11.702,-2.487 -23.898,-3.599 -36.685,-3.43c-10.613,0.14 -20.846,1.511 -30.513,3.939c-10.267,2.579 -19.895,6.35 -28.653,11.1c-9.007,5.05 -17.188,10.854 -24.751,17.512c-7.432,6.542 -14.268,13.91 -20.696,22.18c-5.97,7.978 -11.493,16.778 -16.685,26.403c-4.718,8.745 -9.161,18.17 -13.409,28.246c-3.872,10.097 -7.376,19.849 -10.425,29.254c-3.365,10.382 -6.175,20.341 -8.312,29.875c-0.095,0.428 -0.472,0.733 -0.91,0.739l-32.667,0.457c-0.259,0.004 -0.508,-0.098 -0.691,-0.281c-0.183,-0.184 -0.283,-0.433 -0.279,-0.692l3.173,-186.885c0.01,-0.567 0.469,-1.024 1.036,-1.032l31.851,-0.454c0.364,-0.005 0.706,0.176 0.906,0.48l15.789,23.879Zm-70.533,370.276c10.386,23.163 22.259,43.224 35.629,60.181c15.768,20 33.616,35.673 53.562,47.014c19.864,11.435 41.268,19.784 64.553,25.045c21.372,4.827 44.327,7.052 69.131,6.678c16.903,-0.206 33.208,-2.073 49.114,-5.419c16.109,-3.388 31.809,-8.292 47.306,-14.522c15.348,-6.17 29.895,-13.821 43.537,-22.767c13.736,-9.006 26.556,-19.324 38.336,-30.739c12,-12.01 22.737,-25.175 32.211,-39.595c9.117,-13.876 17.064,-28.913 23.845,-45.199c7.191,-17.276 12.629,-35.749 16.201,-55.417c3.304,-18.19 5.012,-37.4 5.038,-57.63c0.025,-19.986 -1.655,-39.073 -4.859,-57.264c-3.431,-19.481 -8.609,-37.934 -15.297,-55.332c-6.792,-16.62 -14.97,-32.123 -24.436,-46.511c-9.718,-14.77 -20.793,-28.364 -33.122,-40.786c-11.964,-12.089 -25.189,-22.8 -39.677,-32.133c-14.003,-9.022 -29.185,-16.756 -45.531,-23.2c-16.55,-6.308 -33.732,-11.047 -51.55,-14.116c-17.183,-2.959 -34.956,-4.365 -53.319,-4.131c-13.309,0.171 -26.054,1.032 -38.235,2.667c-13.119,1.762 -25.583,4.422 -37.415,8.095c-11.049,3.174 -22.099,7.109 -32.942,11.709c-10.72,4.547 -21.239,9.742 -31.355,15.491c-0.499,0.284 -1.132,0.133 -1.447,-0.346l-15.996,-24.262l-30.248,0.396l-3.325,184.876l30.936,-0.413c2.129,-9.365 4.899,-19.137 8.201,-29.313c3.061,-9.434 6.578,-19.216 10.476,-29.374c4.286,-10.161 8.759,-19.638 13.503,-28.433c5.237,-9.71 10.805,-18.59 16.836,-26.655c6.51,-8.383 13.425,-15.837 20.942,-22.459c7.66,-6.748 15.946,-12.633 25.081,-17.759c8.901,-4.838 18.677,-8.677 29.101,-11.305c9.807,-2.472 20.189,-3.872 30.957,-4.024c12.939,-0.183 25.281,0.936 37.125,3.439c12.233,2.584 23.935,6.646 35.189,12.273c11.344,5.284 22.045,11.77 31.994,19.662c9.523,7.555 18.357,16.398 26.398,26.701c8.285,10.372 15.419,22.471 21.641,36.069c5.502,12.023 10.292,25.219 14.541,39.436c4.732,16.219 8.118,33.29 10.277,51.427c1.965,16.508 2.913,33.901 2.93,52.342c0.016,16.122 -0.925,31.727 -3.005,46.648c-2.233,16.029 -5.781,31.269 -10.853,45.47c-4.418,13.87 -9.827,27.022 -16.222,39.367c-6.646,12.829 -14.358,24.788 -23.117,35.749c-8.216,10.791 -17.462,20.265 -27.634,28.61c-10.18,8.353 -21.289,15.574 -33.204,21.842c-11.838,6.445 -24.545,11.095 -38.011,14.153c-12.77,2.9 -26.223,4.368 -40.264,4.575c-10.488,0.156 -20.582,-0.429 -30.379,-1.748c-10.202,-1.374 -20.081,-3.546 -29.769,-6.521c-8.796,-2.83 -17.011,-6.208 -24.647,-10.131c-8.149,-4.187 -15.637,-8.995 -22.467,-14.423c-6.595,-5.241 -12.985,-11.057 -18.963,-17.26c-5.99,-6.214 -11.567,-12.818 -16.526,-19.621c-4.985,-6.839 -9.553,-14.071 -13.703,-21.598c-3.792,-6.876 -7.236,-13.999 -10.33,-21.296l-26.743,11.787Z"/><path d="M234.101,658.213c34.301,-0.468 66.152,-7.712 97.186,-20.238c31.034,-12.527 58.801,-31.061 82.485,-54.078c23.684,-23.773 42.468,-52.017 56.351,-85.49c13.884,-33.472 21.234,-71.394 21.234,-113.755c0,-41.603 -7.35,-79.324 -20.417,-113.185c-13.883,-33.85 -33.484,-63.083 -57.985,-87.71c-23.683,-23.883 -52.267,-42.403 -85.752,-55.561c-32.667,-12.413 -67.784,-18.741 -105.352,-18.228c-27.767,0.38 -53.085,3.751 -75.952,10.872c-22.05,6.352 -44.101,15.731 -64.518,27.356l-16.334,-24.739l-31.85,0.435l-3.267,186.883l32.667,-0.446c4.084,-18.21 10.617,-37.967 18.784,-59.258c8.984,-21.303 18.784,-39.591 30.217,-54.876c13.067,-16.82 27.768,-29.88 45.735,-39.959c17.15,-9.312 37.567,-14.886 59.618,-15.187c26.134,-0.357 49.818,4.614 71.868,15.659c22.051,10.289 41.651,25.15 57.985,46.107c15.517,19.455 26.951,45.017 35.934,75.152c8.984,30.891 13.067,64.874 13.067,103.452c0,33.283 -4.083,64.353 -13.884,91.718c-8.983,28.111 -22.05,53.252 -39.2,74.666c-16.334,21.403 -36.751,37.567 -60.435,49.994c-22.867,12.415 -49.001,18.067 -77.585,18.458c-21.234,0.29 -40.835,-2.468 -59.618,-8.263c-17.967,-5.806 -33.485,-13.915 -46.551,-24.326c-13.067,-10.411 -25.318,-23.103 -35.118,-36.585c-9.8,-13.482 -17.967,-28.499 -24.501,-44.295l-30.217,13.272c22.867,51.882 53.085,88.534 90.652,109.957c38.384,22.168 82.485,32.912 134.753,32.198Z" style="fill:#fff;fill-rule:nonzero;"/><path d="M81.728,146.747c9.909,-5.609 20.194,-10.689 30.672,-15.154c10.921,-4.654 22.051,-8.639 33.158,-11.849c11.922,-3.723 24.508,-6.433 37.758,-8.235c12.27,-1.669 25.109,-2.558 38.518,-2.753c18.518,-0.27 36.443,1.118 53.778,4.069c17.989,3.062 35.343,7.808 52.073,14.145c16.543,6.481 31.897,14.265 46.065,23.35c14.68,9.414 28.085,20.226 40.215,32.432c12.494,12.528 23.724,26.246 33.585,41.155c9.609,14.525 17.918,30.181 24.84,47c6.816,17.597 12.096,36.233 15.613,55.913c3.282,18.368 5.028,37.644 5.054,57.832c0.025,20.447 -1.655,39.867 -4.948,58.26c-3.57,19.941 -9.037,38.676 -16.281,56.202c-6.829,16.528 -14.847,31.792 -24.05,45.884c-9.581,14.671 -20.446,28.071 -32.62,40.325c-11.954,11.65 -24.944,22.164 -38.868,31.35c-13.847,9.136 -28.616,16.958 -44.206,23.276c-15.716,6.37 -31.642,11.392 -47.988,14.879c-16.176,3.451 -32.763,5.397 -49.964,5.657c-25.18,0.309 -48.476,-2.022 -70.156,-6.984c-23.698,-5.423 -45.47,-13.987 -65.656,-25.683c-20.343,-11.636 -38.551,-27.685 -54.613,-48.163c-13.841,-17.649 -26.092,-38.591 -36.741,-62.834c-0.202,-0.459 -0.214,-0.98 -0.032,-1.448c0.182,-0.468 0.542,-0.844 1.002,-1.046l30.234,-13.233c0.455,-0.2 0.972,-0.208 1.433,-0.023c0.461,0.186 0.829,0.549 1.019,1.009c3.209,7.788 6.819,15.386 10.829,22.702c4.059,7.404 8.527,14.519 13.406,21.25c4.848,6.687 10.304,13.179 16.165,19.291c5.857,6.107 12.117,11.835 18.581,16.998c6.646,5.309 13.935,10.014 21.869,14.115c7.47,3.862 15.51,7.19 24.098,9.977c9.489,2.941 19.189,5.1 29.208,6.474c9.641,1.322 19.576,1.918 29.901,1.789c13.817,-0.174 27.059,-1.585 39.631,-4.411c13.197,-2.967 25.655,-7.491 37.284,-13.788c11.769,-6.158 22.729,-13.245 32.775,-21.451c10.021,-8.184 19.134,-17.48 27.257,-28.099c8.692,-10.829 16.333,-22.619 22.92,-35.272c6.352,-12.201 11.725,-25.204 16.137,-38.961c5.055,-14.074 8.588,-29.136 10.826,-44.979c2.092,-14.806 3.054,-30.294 3.069,-46.296c0.017,-18.341 -0.891,-35.642 -2.815,-52.065c-2.111,-18.009 -5.443,-34.961 -10.11,-51.064c-4.196,-14.111 -8.931,-27.217 -14.375,-39.159c-6.125,-13.435 -13.147,-25.394 -21.321,-35.656c-7.926,-10.185 -16.63,-18.923 -26.015,-26.39c-9.81,-7.804 -20.364,-14.22 -31.58,-19.464c-11.116,-5.577 -22.651,-9.602 -34.712,-12.165c-11.702,-2.486 -23.899,-3.598 -36.686,-3.429c-10.613,0.14 -20.846,1.511 -30.513,3.939c-10.266,2.579 -19.895,6.35 -28.653,11.099c-9.006,5.051 -17.188,10.855 -24.751,17.512c-7.432,6.543 -14.268,13.91 -20.696,22.181c-5.97,7.978 -11.493,16.778 -16.685,26.402c-4.718,8.745 -9.161,18.171 -13.409,28.247c-3.872,10.097 -7.376,19.849 -10.425,29.254c-3.365,10.382 -6.175,20.341 -8.311,29.875c-0.096,0.427 -0.473,0.733 -0.911,0.739l-32.667,0.457c-0.259,0.004 -0.508,-0.098 -0.691,-0.281c-0.183,-0.184 -0.283,-0.433 -0.279,-0.692l3.173,-186.885c0.01,-0.568 0.469,-1.025 1.036,-1.032l31.851,-0.454c0.364,-0.005 0.706,0.176 0.907,0.48l15.788,23.879Zm-70.533,370.276c10.386,23.162 22.259,43.224 35.629,60.181c15.768,20 33.616,35.673 53.562,47.014c19.865,11.435 41.268,19.784 64.554,25.045c21.371,4.827 44.326,7.052 69.13,6.678c16.903,-0.206 33.208,-2.073 49.114,-5.419c16.109,-3.388 31.809,-8.293 47.306,-14.522c15.349,-6.17 29.895,-13.822 43.537,-22.767c13.736,-9.006 26.557,-19.324 38.337,-30.739c11.999,-12.01 22.736,-25.175 32.211,-39.595c9.116,-13.876 17.063,-28.913 23.844,-45.199c7.191,-17.276 12.629,-35.749 16.201,-55.417c3.304,-18.19 5.012,-37.4 5.038,-57.631c0.025,-19.985 -1.655,-39.072 -4.859,-57.263c-3.431,-19.481 -8.609,-37.935 -15.297,-55.332c-6.792,-16.62 -14.97,-32.123 -24.436,-46.511c-9.718,-14.77 -20.793,-28.364 -33.122,-40.786c-11.963,-12.089 -25.189,-22.8 -39.677,-32.133c-14.003,-9.022 -29.185,-16.757 -45.531,-23.2c-16.55,-6.308 -33.732,-11.048 -51.549,-14.116c-17.184,-2.96 -34.957,-4.365 -53.319,-4.131c-13.31,0.171 -26.055,1.031 -38.236,2.667c-13.119,1.762 -25.583,4.422 -37.415,8.095c-11.049,3.173 -22.099,7.109 -32.942,11.708c-10.72,4.547 -21.239,9.743 -31.355,15.492c-0.499,0.284 -1.131,0.132 -1.447,-0.346l-15.996,-24.262l-30.248,0.396l-3.325,184.876l30.936,-0.413c2.129,-9.365 4.899,-19.137 8.201,-29.313c3.061,-9.434 6.578,-19.216 10.476,-29.374c4.286,-10.161 8.759,-19.638 13.503,-28.433c5.237,-9.71 10.806,-18.591 16.836,-26.655c6.51,-8.383 13.425,-15.837 20.942,-22.459c7.66,-6.749 15.946,-12.633 25.081,-17.76c8.901,-4.837 18.677,-8.676 29.102,-11.304c9.806,-2.472 20.188,-3.872 30.957,-4.024c12.938,-0.183 25.28,0.936 37.124,3.438c12.233,2.585 23.935,6.646 35.189,12.274c11.344,5.284 22.045,11.77 31.994,19.662c9.523,7.555 18.357,16.398 26.398,26.7c8.285,10.373 15.419,22.472 21.641,36.07c5.502,12.022 10.292,25.218 14.541,39.436c4.733,16.219 8.119,33.289 10.277,51.427c1.965,16.508 2.913,33.901 2.93,52.341c0.016,16.123 -0.925,31.728 -3.004,46.649c-2.234,16.029 -5.782,31.268 -10.854,45.47c-4.418,13.87 -9.827,27.021 -16.222,39.367c-6.646,12.829 -14.358,24.788 -23.117,35.749c-8.216,10.791 -17.462,20.265 -27.634,28.61c-10.18,8.352 -21.289,15.574 -33.204,21.842c-11.838,6.444 -24.545,11.094 -38.01,14.153c-12.77,2.9 -26.224,4.368 -40.265,4.575c-10.488,0.155 -20.582,-0.429 -30.378,-1.748c-10.202,-1.374 -20.082,-3.546 -29.77,-6.521c-8.796,-2.83 -17.011,-6.208 -24.647,-10.131c-8.148,-4.187 -15.637,-8.995 -22.467,-14.423c-6.595,-5.241 -12.984,-11.057 -18.963,-17.26c-5.99,-6.214 -11.567,-12.818 -16.526,-19.621c-4.985,-6.839 -9.552,-14.071 -13.703,-21.598c-3.792,-6.876 -7.235,-13.999 -10.33,-21.296l-26.743,11.787Z"/><path d="M236.237,666.232c34.301,-0.469 66.152,-7.712 97.186,-20.239c31.034,-12.527 58.801,-31.061 82.485,-54.077c23.684,-23.773 42.468,-52.018 56.351,-85.49c13.884,-33.473 21.234,-71.395 21.234,-113.755c0,-41.604 -7.35,-79.325 -20.417,-113.186c-13.884,-33.85 -33.484,-63.083 -57.985,-87.71c-23.683,-23.882 -52.267,-42.402 -85.752,-55.561c-32.667,-12.413 -67.784,-18.741 -105.352,-18.227c-27.767,0.379 -53.085,3.751 -75.952,10.871c-22.05,6.353 -44.101,15.731 -64.518,27.357l-16.334,-24.739l-31.85,0.435l-3.267,186.883l32.667,-0.447c4.084,-18.21 10.617,-37.966 18.784,-59.258c8.984,-21.303 18.784,-39.591 30.217,-54.876c13.067,-16.82 27.768,-29.88 45.735,-39.959c17.15,-9.312 37.567,-14.886 59.618,-15.187c26.134,-0.357 49.818,4.615 71.868,15.66c22.051,10.288 41.651,25.149 57.985,46.106c15.517,19.455 26.951,45.018 35.934,75.152c8.984,30.891 13.067,64.875 13.067,103.453c0,33.283 -4.083,64.352 -13.884,91.718c-8.983,28.11 -22.05,53.251 -39.201,74.665c-16.333,21.404 -36.75,37.568 -60.434,49.994c-22.867,12.415 -49.001,18.068 -77.585,18.458c-21.234,0.29 -40.835,-2.468 -59.618,-8.262c-17.968,-5.806 -33.485,-13.915 -46.552,-24.327c-13.067,-10.411 -25.317,-23.103 -35.117,-36.585c-9.8,-13.482 -17.967,-28.499 -24.501,-44.295l-30.217,13.273c22.867,51.881 53.085,88.533 90.652,109.956c38.384,22.169 82.485,32.913 134.753,32.199Z" style="fill:#fff;fill-rule:nonzero;"/><path d="M83.864,154.766c9.909,-5.61 20.194,-10.69 30.672,-15.155c10.921,-4.654 22.051,-8.639 33.158,-11.849c11.922,-3.723 24.508,-6.433 37.758,-8.235c12.27,-1.668 25.109,-2.558 38.518,-2.752c18.518,-0.27 36.443,1.117 53.778,4.068c17.989,3.062 35.343,7.808 52.073,14.145c16.543,6.481 31.897,14.265 46.065,23.351c14.68,9.414 28.085,20.225 40.215,32.432c12.494,12.527 23.723,26.246 33.585,41.154c9.609,14.526 17.918,30.182 24.84,47.001c6.816,17.596 12.096,36.233 15.613,55.913c3.282,18.367 5.028,37.643 5.054,57.832c0.025,20.447 -1.655,39.867 -4.948,58.259c-3.57,19.942 -9.037,38.676 -16.281,56.203c-6.829,16.527 -14.847,31.791 -24.05,45.883c-9.581,14.671 -20.446,28.072 -32.62,40.326c-11.954,11.649 -24.944,22.163 -38.868,31.35c-13.847,9.136 -28.616,16.957 -44.206,23.276c-15.716,6.369 -31.642,11.391 -47.988,14.878c-16.176,3.451 -32.763,5.398 -49.964,5.657c-25.18,0.309 -48.476,-2.022 -70.156,-6.983c-23.698,-5.423 -45.47,-13.988 -65.656,-25.684c-20.343,-11.635 -38.551,-27.685 -54.613,-48.163c-13.841,-17.648 -26.092,-38.591 -36.741,-62.834c-0.202,-0.459 -0.214,-0.98 -0.032,-1.448c0.182,-0.467 0.542,-0.843 1.002,-1.045c0,0 30.234,-13.234 30.234,-13.234c0.455,-0.2 0.972,-0.208 1.433,-0.023c0.461,0.186 0.829,0.549 1.019,1.009c3.209,7.788 6.819,15.386 10.829,22.702c4.059,7.405 8.527,14.52 13.406,21.25c4.848,6.687 10.304,13.179 16.165,19.291c5.857,6.107 12.117,11.835 18.581,16.998c6.646,5.309 13.935,10.014 21.868,14.115c7.471,3.862 15.51,7.19 24.099,9.977c9.489,2.941 19.189,5.1 29.208,6.474c9.641,1.322 19.576,1.918 29.901,1.789c13.817,-0.174 27.059,-1.585 39.631,-4.411c13.197,-2.966 25.655,-7.491 37.283,-13.787c11.77,-6.159 22.729,-13.246 32.776,-21.451c10.021,-8.184 19.134,-17.48 27.257,-28.1c8.692,-10.828 16.333,-22.618 22.92,-35.271c6.352,-12.201 11.725,-25.204 16.137,-38.962c5.055,-14.074 8.588,-29.135 10.826,-44.979c2.092,-14.806 3.054,-30.293 3.069,-46.295c0.017,-18.342 -0.891,-35.643 -2.815,-52.066c-2.111,-18.009 -5.443,-34.961 -10.11,-51.063c-4.196,-14.111 -8.931,-27.218 -14.375,-39.159c-6.125,-13.435 -13.148,-25.394 -21.321,-35.657c-7.927,-10.185 -16.63,-18.923 -26.015,-26.39c-9.81,-7.804 -20.364,-14.22 -31.58,-19.463c-11.116,-5.578 -22.651,-9.602 -34.713,-12.165c-11.702,-2.487 -23.898,-3.599 -36.685,-3.43c-10.613,0.141 -20.846,1.511 -30.513,3.939c-10.266,2.579 -19.895,6.35 -28.653,11.1c-9.007,5.05 -17.188,10.854 -24.751,17.512c-7.432,6.543 -14.268,13.91 -20.696,22.18c-5.97,7.978 -11.493,16.778 -16.685,26.403c-4.718,8.745 -9.161,18.17 -13.409,28.246c-3.872,10.098 -7.376,19.849 -10.425,29.254c-3.365,10.383 -6.175,20.342 -8.311,29.875c-0.096,0.428 -0.473,0.734 -0.911,0.74l-32.667,0.456c-0.259,0.004 -0.508,-0.098 -0.691,-0.281c-0.183,-0.183 -0.283,-0.433 -0.279,-0.692l3.173,-186.885c0.01,-0.567 0.469,-1.024 1.036,-1.032l31.851,-0.454c0.364,-0.005 0.706,0.176 0.907,0.48l15.788,23.88Zm-70.533,370.275c10.386,23.163 22.259,43.224 35.629,60.181c15.768,20 33.616,35.673 53.562,47.014c19.864,11.436 41.268,19.785 64.554,25.045c21.371,4.828 44.326,7.052 69.13,6.679c16.903,-0.207 33.208,-2.074 49.114,-5.42c16.109,-3.388 31.809,-8.292 47.306,-14.522c15.349,-6.17 29.895,-13.821 43.537,-22.767c13.736,-9.006 26.556,-19.323 38.337,-30.739c11.999,-12.01 22.736,-25.174 32.21,-39.595c9.117,-13.875 17.064,-28.913 23.845,-45.199c7.191,-17.276 12.629,-35.749 16.201,-55.417c3.304,-18.189 5.012,-37.4 5.038,-57.63c0.025,-19.986 -1.655,-39.073 -4.859,-57.264c-3.431,-19.481 -8.609,-37.934 -15.297,-55.332c-6.792,-16.619 -14.97,-32.123 -24.436,-46.511c-9.718,-14.77 -20.793,-28.364 -33.122,-40.786c-11.964,-12.089 -25.189,-22.8 -39.677,-32.133c-14.003,-9.022 -29.185,-16.756 -45.531,-23.199c-16.55,-6.308 -33.732,-11.048 -51.55,-14.117c-17.183,-2.959 -34.956,-4.365 -53.318,-4.13c-13.31,0.17 -26.055,1.031 -38.236,2.667c-13.119,1.761 -25.583,4.422 -37.415,8.095c-11.049,3.173 -22.099,7.108 -32.942,11.708c-10.72,4.547 -21.239,9.742 -31.355,15.492c-0.499,0.283 -1.131,0.132 -1.447,-0.347l-15.996,-24.262l-30.248,0.396l-3.325,184.876l30.936,-0.413c2.129,-9.365 4.899,-19.137 8.201,-29.313c3.061,-9.434 6.578,-19.216 10.476,-29.373c4.286,-10.162 8.759,-19.639 13.503,-28.434c5.237,-9.71 10.805,-18.59 16.836,-26.655c6.51,-8.383 13.425,-15.837 20.942,-22.459c7.66,-6.748 15.946,-12.632 25.081,-17.759c8.901,-4.838 18.677,-8.677 29.102,-11.305c9.806,-2.472 20.188,-3.872 30.957,-4.024c12.938,-0.182 25.28,0.936 37.124,3.439c12.233,2.584 23.935,6.646 35.189,12.273c11.344,5.284 22.045,11.77 31.994,19.662c9.523,7.555 18.357,16.399 26.398,26.701c8.285,10.372 15.419,22.471 21.641,36.069c5.502,12.023 10.292,25.219 14.541,39.436c4.732,16.219 8.119,33.29 10.277,51.427c1.965,16.508 2.913,33.901 2.93,52.342c0.016,16.122 -0.925,31.727 -3.005,46.649c-2.233,16.028 -5.781,31.268 -10.853,45.469c-4.418,13.87 -9.827,27.022 -16.222,39.367c-6.646,12.829 -14.358,24.788 -23.117,35.749c-8.216,10.792 -17.462,20.265 -27.634,28.611c-10.18,8.352 -21.289,15.573 -33.204,21.842c-11.838,6.444 -24.545,11.094 -38.011,14.152c-12.769,2.9 -26.223,4.368 -40.264,4.575c-10.488,0.156 -20.582,-0.429 -30.378,-1.748c-10.202,-1.374 -20.082,-3.546 -29.77,-6.521c-8.796,-2.83 -17.011,-6.208 -24.647,-10.131c-8.148,-4.186 -15.637,-8.995 -22.467,-14.423c-6.595,-5.241 -12.985,-11.056 -18.963,-17.259c-5.99,-6.215 -11.567,-12.818 -16.526,-19.622c-4.985,-6.839 -9.552,-14.07 -13.703,-21.598c-3.792,-6.876 -7.235,-13.999 -10.33,-21.296l-26.743,11.787Z"/></g><g><path d="M550.948,550.546c-34.3,-0.469 -66.151,-7.712 -97.185,-20.239c-31.034,-12.527 -58.802,-31.06 -82.486,-54.077c-23.683,-23.773 -42.467,-52.017 -56.351,-85.49c-13.883,-33.473 -21.234,-71.395 -21.234,-113.755c0,-41.604 7.351,-79.325 20.417,-113.185c13.884,-33.85 33.485,-63.083 57.985,-87.711c23.684,-23.882 52.268,-42.402 85.752,-55.56c32.668,-12.413 67.785,-18.741 105.353,-18.228c27.767,0.379 53.084,3.751 75.951,10.871c22.051,6.353 44.101,15.732 64.519,27.357l16.333,-24.739l31.851,0.435l3.267,186.883l-32.668,-0.446c-4.083,-18.21 -10.617,-37.967 -18.783,-59.258c-8.984,-21.303 -18.784,-39.592 -30.218,-54.876c-13.067,-16.82 -27.767,-29.881 -45.734,-39.96c-17.151,-9.311 -37.568,-14.885 -59.618,-15.186c-26.134,-0.357 -49.818,4.614 -71.869,15.659c-22.05,10.289 -41.651,25.15 -57.984,46.107c-15.517,19.455 -26.951,45.017 -35.934,75.152c-8.984,30.891 -13.067,64.874 -13.067,103.452c0,33.283 4.083,64.353 13.883,91.718c8.984,28.111 22.051,53.251 39.201,74.666c16.334,21.403 36.751,37.567 60.435,49.994c22.867,12.415 49.001,18.067 77.585,18.458c21.234,0.29 40.834,-2.468 59.618,-8.263c17.967,-5.806 33.484,-13.915 46.551,-24.326c13.067,-10.412 25.317,-23.104 35.118,-36.586c9.8,-13.481 17.967,-28.498 24.5,-44.294l30.218,13.272c-22.868,51.881 -53.085,88.533 -90.653,109.957c-38.384,22.168 -82.485,32.912 -134.753,32.198Z" style="fill:#fff;fill-rule:nonzero;"/><path d="M703.322,39.08l15.788,-23.879c0.201,-0.304 0.543,-0.485 0.907,-0.48l31.85,0.453c0.568,0.008 1.027,0.465 1.037,1.033c0,0 3.172,186.884 3.172,186.884c0.005,0.259 -0.096,0.509 -0.278,0.692c-0.183,0.184 -0.432,0.285 -0.691,0.282l-32.668,-0.457c-0.438,-0.006 -0.814,-0.312 -0.91,-0.739c-2.136,-9.534 -4.946,-19.493 -8.312,-29.875c-3.048,-9.405 -6.553,-19.157 -10.413,-29.226c-4.26,-10.105 -8.703,-19.53 -13.42,-28.275c-5.192,-9.624 -10.716,-18.424 -16.675,-26.389c-6.438,-8.284 -13.274,-15.651 -20.707,-22.194c-7.563,-6.658 -15.744,-12.462 -24.739,-17.506c-8.769,-4.756 -18.398,-8.527 -28.665,-11.105c-9.667,-2.428 -19.899,-3.799 -30.513,-3.939c-12.786,-0.169 -24.983,0.942 -36.685,3.429c-12.061,2.563 -23.596,6.587 -34.738,12.177c-11.19,5.232 -21.745,11.648 -31.554,19.452c-9.386,7.467 -18.089,16.205 -26.023,26.399c-8.166,10.253 -15.188,22.212 -21.313,35.647c-5.445,11.942 -10.179,25.048 -14.373,39.152c-4.67,16.109 -8.002,33.061 -10.112,51.071c-1.924,16.422 -2.832,33.724 -2.815,52.065c0.015,16.002 0.976,31.49 3.068,46.296c2.239,15.843 5.771,30.905 10.841,45.022c4.397,13.714 9.77,26.717 16.122,38.918c6.588,12.653 14.229,24.443 22.941,35.297c8.103,10.594 17.216,19.89 27.237,28.074c10.046,8.205 21.006,15.293 32.794,21.461c11.61,6.287 24.068,10.811 37.265,13.778c12.572,2.825 25.813,4.237 39.631,4.41c10.325,0.129 20.26,-0.467 29.9,-1.789c10.02,-1.374 19.72,-3.533 29.188,-6.467c8.609,-2.794 16.649,-6.121 24.119,-9.983c7.933,-4.102 15.223,-8.806 21.869,-14.115c6.463,-5.164 12.724,-10.891 18.58,-16.998c5.861,-6.112 11.317,-12.604 16.165,-19.292c4.88,-6.73 9.348,-13.845 13.407,-21.249c4.01,-7.316 7.619,-14.915 10.829,-22.703c0.19,-0.459 0.557,-0.823 1.018,-1.008c0.462,-0.186 0.978,-0.178 1.434,0.022l30.234,13.234c0.459,0.202 0.82,0.578 1.001,1.046c0.182,0.467 0.171,0.988 -0.032,1.447c-10.648,24.244 -22.899,45.186 -36.741,62.835c-16.061,20.478 -34.269,36.527 -54.603,48.157c-20.196,11.702 -41.967,20.266 -65.665,25.689c-21.681,4.962 -44.976,7.292 -70.157,6.984c-17.2,-0.26 -33.787,-2.206 -49.964,-5.657c-16.345,-3.487 -32.271,-8.509 -47.987,-14.879c-15.59,-6.319 -30.36,-14.14 -44.207,-23.276c-13.923,-9.186 -26.914,-19.7 -38.89,-31.373c-12.151,-12.231 -23.017,-25.632 -32.598,-40.303c-9.202,-14.092 -17.22,-29.355 -24.05,-45.883c-7.243,-17.527 -12.71,-36.261 -16.28,-56.202c-3.293,-18.393 -4.974,-37.813 -4.948,-58.26c0.025,-20.188 1.771,-39.465 5.054,-57.832c3.517,-19.68 8.796,-38.317 15.624,-55.943c6.911,-16.789 15.22,-32.445 24.828,-46.971c9.862,-14.908 21.092,-28.626 33.584,-41.152c12.132,-12.208 25.537,-23.02 40.217,-32.434c14.167,-9.085 29.522,-16.869 46.078,-23.356c16.717,-6.332 34.07,-11.078 52.059,-14.14c17.335,-2.95 35.261,-4.338 53.778,-4.068c13.41,0.195 26.249,1.084 38.519,2.753c13.249,1.801 25.835,4.511 37.734,8.228c11.131,3.217 22.261,7.201 33.182,11.855c10.477,4.465 20.762,9.546 30.672,15.155Zm17.251,-22.213l-15.996,24.262c-0.316,0.478 -0.949,0.63 -1.447,0.346c-10.117,-5.749 -20.635,-10.945 -31.355,-15.492c-10.843,-4.599 -21.893,-8.535 -32.966,-11.715c-11.808,-3.666 -24.272,-6.326 -37.391,-8.088c-12.181,-1.636 -24.926,-2.496 -38.236,-2.667c-18.362,-0.234 -36.135,1.171 -53.319,4.131c-17.817,3.068 -35,7.808 -51.535,14.111c-16.36,6.448 -31.542,14.183 -45.546,23.204c-14.487,9.333 -27.713,20.044 -39.678,32.135c-12.327,12.421 -23.403,26.015 -33.12,40.784c-9.467,14.388 -17.644,29.892 -24.424,46.481c-6.701,17.428 -11.878,35.881 -15.309,55.362c-3.204,18.191 -4.884,37.279 -4.859,57.264c0.025,20.23 1.734,39.441 5.038,57.631c3.572,19.668 9.01,38.141 16.201,55.417c6.781,16.286 14.728,31.323 23.844,45.199c9.474,14.42 20.212,27.585 32.188,39.572c11.803,11.438 24.624,21.755 38.359,30.762c13.643,8.945 28.189,16.596 43.538,22.766c15.497,6.23 31.197,11.134 47.306,14.523c15.905,3.346 32.211,5.212 49.113,5.419c24.805,0.374 47.76,-1.851 69.131,-6.679c23.286,-5.26 44.689,-13.609 64.563,-25.05c19.937,-11.335 37.784,-27.009 53.553,-47.008c13.369,-16.957 25.243,-37.019 35.628,-60.182l-26.742,-11.786c-3.095,7.297 -6.538,14.42 -10.33,21.296c-4.151,7.527 -8.719,14.759 -13.703,21.597c-4.959,6.804 -10.536,13.407 -16.526,19.622c-5.979,6.203 -12.369,12.019 -18.963,17.26c-6.831,5.428 -14.319,10.236 -22.467,14.422c-7.636,3.924 -15.852,7.301 -24.669,10.138c-9.666,2.969 -19.546,5.141 -29.748,6.514c-9.796,1.32 -19.89,1.904 -30.379,1.749c-14.041,-0.208 -27.494,-1.675 -40.264,-4.576c-13.465,-3.058 -26.172,-7.708 -37.991,-14.142c-11.935,-6.279 -23.043,-13.5 -33.223,-21.852c-10.172,-8.345 -19.418,-17.819 -27.614,-28.585c-8.78,-10.987 -16.492,-22.945 -23.138,-35.775c-6.395,-12.345 -11.804,-25.496 -16.207,-39.324c-5.086,-14.244 -8.634,-29.484 -10.868,-45.512c-2.079,-14.921 -3.02,-30.527 -3.005,-46.649c0.018,-18.441 0.966,-35.833 2.93,-52.342c2.159,-18.137 5.545,-35.207 10.279,-51.434c4.247,-14.21 9.038,-27.406 14.539,-39.428c6.223,-13.598 13.357,-25.697 21.634,-36.06c8.048,-10.312 16.883,-19.156 26.406,-26.71c9.949,-7.893 20.649,-14.379 31.968,-19.65c11.279,-5.64 22.982,-9.701 35.215,-12.286c11.844,-2.502 24.185,-3.621 37.124,-3.438c10.769,0.151 21.15,1.552 30.957,4.024c10.425,2.627 20.2,6.466 29.113,11.311c9.124,5.12 17.41,11.004 25.07,17.752c7.517,6.622 14.431,14.077 20.952,22.473c6.02,8.051 11.588,16.931 16.826,26.641c4.743,8.796 9.217,18.272 13.514,28.463c3.887,10.128 7.404,19.911 10.465,29.345c3.301,10.176 6.072,19.947 8.2,29.313l30.936,0.412l-3.324,-184.876l-30.248,-0.395Z"/><path d="M548.812,558.564c-34.3,-0.468 -66.151,-7.711 -97.185,-20.238c-31.034,-12.527 -58.802,-31.061 -82.485,-54.078c-23.684,-23.772 -42.468,-52.017 -56.352,-85.49c-13.883,-33.472 -21.234,-71.394 -21.234,-113.754c0,-41.604 7.351,-79.325 20.418,-113.186c13.883,-33.85 33.484,-63.083 57.984,-87.71c23.684,-23.882 52.268,-42.403 85.752,-55.561c32.668,-12.413 67.785,-18.741 105.353,-18.228c27.767,0.38 53.084,3.751 75.951,10.872c22.051,6.352 44.101,15.731 64.519,27.356l16.333,-24.739l31.851,0.435l3.267,186.883l-32.668,-0.446c-4.083,-18.21 -10.617,-37.966 -18.783,-59.258c-8.984,-21.303 -18.784,-39.591 -30.218,-54.876c-13.067,-16.82 -27.767,-29.88 -45.734,-39.959c-17.151,-9.312 -37.568,-14.886 -59.618,-15.187c-26.134,-0.357 -49.818,4.614 -71.869,15.659c-22.05,10.289 -41.651,25.15 -57.984,46.107c-15.517,19.455 -26.951,45.018 -35.934,75.152c-8.984,30.891 -13.067,64.875 -13.067,103.453c0,33.282 4.083,64.352 13.883,91.717c8.984,28.111 22.051,53.252 39.201,74.666c16.334,21.403 36.751,37.567 60.435,49.994c22.867,12.415 49.001,18.067 77.585,18.458c21.234,0.29 40.834,-2.468 59.618,-8.263c17.967,-5.806 33.484,-13.914 46.551,-24.326c13.067,-10.411 25.317,-23.103 35.118,-36.585c9.8,-13.482 17.967,-28.499 24.5,-44.295l30.218,13.272c-22.868,51.882 -53.085,88.534 -90.652,109.957c-38.385,22.169 -82.486,32.912 -134.754,32.198Z" style="fill:#fff;fill-rule:nonzero;"/><path d="M701.186,47.098l15.788,-23.879c0.201,-0.304 0.543,-0.485 0.907,-0.48l31.85,0.454c0.568,0.007 1.027,0.465 1.037,1.032c0,0 3.172,186.885 3.172,186.885c0.005,0.259 -0.096,0.508 -0.278,0.692c-0.183,0.183 -0.432,0.285 -0.691,0.281l-32.668,-0.457c-0.438,-0.006 -0.814,-0.311 -0.91,-0.739c-2.136,-9.534 -4.946,-19.493 -8.312,-29.875c-3.048,-9.405 -6.552,-19.157 -10.413,-29.226c-4.26,-10.104 -8.703,-19.53 -13.42,-28.275c-5.192,-9.624 -10.716,-18.424 -16.675,-26.388c-6.438,-8.284 -13.274,-15.652 -20.707,-22.194c-7.563,-6.658 -15.744,-12.462 -24.739,-17.506c-8.769,-4.756 -18.398,-8.527 -28.665,-11.106c-9.667,-2.428 -19.899,-3.799 -30.513,-3.939c-12.786,-0.169 -24.983,0.943 -36.685,3.429c-12.061,2.564 -23.596,6.588 -34.738,12.178c-11.19,5.231 -21.745,11.647 -31.554,19.451c-9.386,7.467 -18.089,16.205 -26.023,26.399c-8.166,10.253 -15.188,22.213 -21.313,35.647c-5.445,11.942 -10.179,25.048 -14.373,39.152c-4.67,16.11 -8.002,33.062 -10.112,51.071c-1.924,16.423 -2.832,33.724 -2.815,52.066c0.015,16.002 0.976,31.489 3.068,46.295c2.239,15.843 5.771,30.905 10.841,45.022c4.397,13.714 9.77,26.717 16.122,38.918c6.588,12.653 14.229,24.443 22.941,35.298c8.103,10.593 17.216,19.889 27.237,28.073c10.046,8.206 21.006,15.293 32.794,21.461c11.61,6.287 24.068,10.811 37.265,13.778c12.572,2.826 25.813,4.237 39.631,4.411c10.325,0.129 20.26,-0.467 29.9,-1.789c10.02,-1.374 19.72,-3.533 29.188,-6.467c8.609,-2.794 16.649,-6.122 24.119,-9.984c7.933,-4.101 15.223,-8.806 21.869,-14.115c6.463,-5.163 12.724,-10.891 18.58,-16.998c5.861,-6.112 11.317,-12.604 16.166,-19.291c4.879,-6.73 9.347,-13.846 13.406,-21.25c4.01,-7.316 7.619,-14.914 10.829,-22.702c0.19,-0.46 0.557,-0.823 1.019,-1.009c0.461,-0.185 0.977,-0.177 1.433,0.023l30.234,13.234c0.459,0.201 0.82,0.577 1.001,1.045c0.182,0.468 0.171,0.989 -0.032,1.448c-10.648,24.243 -22.899,45.185 -36.741,62.834c-16.061,20.478 -34.269,36.528 -54.602,48.157c-20.197,11.702 -41.968,20.266 -65.666,25.69c-21.681,4.961 -44.976,7.292 -70.157,6.983c-17.2,-0.259 -33.787,-2.206 -49.963,-5.657c-16.346,-3.487 -32.272,-8.509 -47.988,-14.879c-15.59,-6.318 -30.36,-14.14 -44.207,-23.276c-13.923,-9.186 -26.914,-19.7 -38.89,-31.372c-12.151,-12.232 -23.017,-25.632 -32.598,-40.303c-9.202,-14.092 -17.22,-29.356 -24.05,-45.884c-7.243,-17.526 -12.71,-36.26 -16.28,-56.202c-3.293,-18.392 -4.974,-37.813 -4.948,-58.259c0.025,-20.189 1.771,-39.465 5.054,-57.833c3.517,-19.68 8.796,-38.316 15.624,-55.943c6.911,-16.788 15.22,-32.445 24.828,-46.97c9.862,-14.909 21.092,-28.627 33.584,-41.153c12.132,-12.208 25.537,-23.02 40.217,-32.434c14.167,-9.085 29.522,-16.869 46.078,-23.355c16.717,-6.332 34.07,-11.078 52.059,-14.14c17.335,-2.951 35.261,-4.339 53.778,-4.069c13.41,0.195 26.249,1.084 38.519,2.753c13.249,1.802 25.835,4.512 37.734,8.228c11.131,3.217 22.261,7.202 33.182,11.856c10.477,4.465 20.762,9.545 30.672,15.154Zm17.251,-22.213l-15.996,24.262c-0.316,0.479 -0.949,0.63 -1.447,0.346c-10.117,-5.749 -20.635,-10.944 -31.355,-15.491c-10.843,-4.6 -21.893,-8.535 -32.966,-11.716c-11.808,-3.666 -24.272,-6.326 -37.391,-8.088c-12.181,-1.635 -24.926,-2.496 -38.236,-2.667c-18.362,-0.234 -36.135,1.171 -53.319,4.131c-17.817,3.069 -35,7.808 -51.535,14.111c-16.36,6.449 -31.542,14.183 -45.546,23.205c-14.487,9.333 -27.713,20.044 -39.678,32.134c-12.327,12.421 -23.403,26.015 -33.12,40.785c-9.467,14.388 -17.644,29.891 -24.424,46.481c-6.701,17.427 -11.878,35.881 -15.309,55.362c-3.204,18.191 -4.884,37.278 -4.859,57.264c0.025,20.23 1.734,39.44 5.038,57.63c3.572,19.668 9.01,38.141 16.201,55.417c6.781,16.286 14.728,31.323 23.844,45.199c9.474,14.42 20.212,27.585 32.188,39.573c11.803,11.437 24.624,21.755 38.359,30.761c13.643,8.945 28.189,16.597 43.538,22.767c15.497,6.23 31.197,11.134 47.306,14.522c15.906,3.346 32.211,5.213 49.113,5.419c24.805,0.374 47.76,-1.851 69.131,-6.678c23.286,-5.261 44.689,-13.61 64.563,-25.051c19.937,-11.335 37.784,-27.008 53.553,-47.008c13.369,-16.957 25.243,-37.019 35.628,-60.181l-26.742,-11.787c-3.095,7.297 -6.538,14.42 -10.33,21.296c-4.151,7.527 -8.719,14.759 -13.703,21.598c-4.959,6.803 -10.536,13.407 -16.526,19.621c-5.979,6.203 -12.368,12.019 -18.963,17.26c-6.83,5.428 -14.319,10.236 -22.467,14.423c-7.636,3.923 -15.852,7.301 -24.669,10.137c-9.666,2.969 -19.546,5.141 -29.748,6.515c-9.796,1.319 -19.89,1.903 -30.379,1.748c-14.041,-0.207 -27.494,-1.675 -40.264,-4.575c-13.465,-3.059 -26.172,-7.709 -37.991,-14.143c-11.934,-6.278 -23.043,-13.499 -33.223,-21.852c-10.172,-8.345 -19.418,-17.819 -27.614,-28.584c-8.78,-10.987 -16.492,-22.946 -23.138,-35.775c-6.395,-12.345 -11.804,-25.497 -16.207,-39.324c-5.086,-14.245 -8.634,-29.484 -10.868,-45.513c-2.079,-14.921 -3.02,-30.526 -3.005,-46.648c0.018,-18.441 0.966,-35.834 2.93,-52.342c2.159,-18.138 5.545,-35.208 10.279,-51.434c4.248,-14.211 9.038,-27.407 14.539,-39.429c6.223,-13.598 13.357,-25.697 21.634,-36.06c8.049,-10.312 16.883,-19.155 26.406,-26.71c9.949,-7.892 20.649,-14.378 31.968,-19.65c11.279,-5.639 22.982,-9.701 35.215,-12.286c11.844,-2.502 24.186,-3.621 37.124,-3.438c10.769,0.152 21.15,1.552 30.957,4.024c10.425,2.628 20.2,6.467 29.113,11.311c9.124,5.12 17.41,11.004 25.07,17.753c7.517,6.622 14.431,14.076 20.952,22.473c6.02,8.05 11.588,16.931 16.826,26.641c4.743,8.795 9.217,18.272 13.514,28.462c3.887,10.129 7.404,19.911 10.465,29.345c3.301,10.176 6.072,19.948 8.2,29.313l30.936,0.413l-3.324,-184.876l-30.248,-0.396Z"/><path d="M546.676,566.583c-34.3,-0.469 -66.151,-7.712 -97.185,-20.239c-31.034,-12.527 -58.802,-31.061 -82.485,-54.077c-23.684,-23.773 -42.468,-52.018 -56.352,-85.49c-13.883,-33.473 -21.234,-71.395 -21.234,-113.755c0,-41.604 7.351,-79.325 20.418,-113.186c13.883,-33.849 33.484,-63.082 57.984,-87.71c23.684,-23.882 52.268,-42.402 85.752,-55.561c32.668,-12.413 67.785,-18.741 105.353,-18.227c27.767,0.379 53.084,3.751 75.951,10.871c22.051,6.353 44.101,15.731 64.519,27.357l16.333,-24.739l31.851,0.435l3.267,186.883l-32.668,-0.447c-4.083,-18.21 -10.617,-37.966 -18.783,-59.258c-8.984,-21.303 -18.784,-39.591 -30.218,-54.876c-13.067,-16.82 -27.767,-29.88 -45.734,-39.959c-17.151,-9.311 -37.568,-14.885 -59.618,-15.187c-26.134,-0.357 -49.818,4.615 -71.869,15.66c-22.05,10.289 -41.65,25.149 -57.984,46.106c-15.517,19.455 -26.951,45.018 -35.934,75.152c-8.984,30.891 -13.067,64.875 -13.067,103.453c0,33.283 4.083,64.352 13.883,91.718c8.984,28.11 22.051,53.251 39.201,74.666c16.334,21.403 36.751,37.567 60.435,49.993c22.867,12.416 49.001,18.068 77.585,18.458c21.234,0.29 40.834,-2.468 59.618,-8.262c17.967,-5.806 33.484,-13.915 46.551,-24.327c13.067,-10.411 25.317,-23.103 35.118,-36.585c9.8,-13.482 17.967,-28.499 24.5,-44.295l30.218,13.273c-22.868,51.881 -53.085,88.533 -90.652,109.956c-38.385,22.169 -82.486,32.913 -134.754,32.199Z" style="fill:#fff;fill-rule:nonzero;"/><path d="M699.05,55.117l15.788,-23.879c0.201,-0.305 0.543,-0.485 0.907,-0.48l31.85,0.453c0.568,0.008 1.027,0.465 1.037,1.032c0,0 3.172,186.885 3.172,186.885c0.005,0.259 -0.096,0.509 -0.278,0.692c-0.183,0.183 -0.432,0.285 -0.691,0.281l-32.668,-0.456c-0.437,-0.006 -0.814,-0.312 -0.91,-0.739c-2.136,-9.534 -4.946,-19.493 -8.312,-29.876c-3.048,-9.405 -6.552,-19.156 -10.413,-29.225c-4.26,-10.105 -8.703,-19.53 -13.42,-28.275c-5.192,-9.625 -10.716,-18.424 -16.675,-26.389c-6.438,-8.284 -13.274,-15.651 -20.707,-22.194c-7.563,-6.658 -15.744,-12.462 -24.739,-17.506c-8.769,-4.756 -18.398,-8.527 -28.665,-11.106c-9.667,-2.428 -19.899,-3.798 -30.513,-3.939c-12.786,-0.169 -24.983,0.943 -36.685,3.43c-12.061,2.563 -23.596,6.587 -34.738,12.177c-11.19,5.231 -21.745,11.647 -31.554,19.452c-9.386,7.466 -18.089,16.204 -26.023,26.399c-8.166,10.253 -15.188,22.212 -21.313,35.647c-5.444,11.941 -10.179,25.048 -14.373,39.152c-4.67,16.109 -8.002,33.061 -10.112,51.07c-1.924,16.423 -2.832,33.724 -2.815,52.066c0.015,16.002 0.977,31.489 3.068,46.295c2.239,15.844 5.772,30.905 10.841,45.022c4.397,13.715 9.77,26.718 16.122,38.919c6.588,12.653 14.229,24.443 22.941,35.297c8.103,10.594 17.216,19.89 27.237,28.074c10.046,8.205 21.006,15.292 32.794,21.461c11.61,6.286 24.068,10.811 37.265,13.777c12.572,2.826 25.813,4.238 39.631,4.411c10.325,0.129 20.26,-0.467 29.9,-1.789c10.02,-1.374 19.72,-3.533 29.188,-6.467c8.609,-2.794 16.649,-6.122 24.119,-9.984c7.934,-4.101 15.223,-8.806 21.869,-14.114c6.463,-5.164 12.724,-10.892 18.58,-16.999c5.862,-6.112 11.317,-12.604 16.166,-19.291c4.879,-6.73 9.347,-13.845 13.406,-21.25c4.01,-7.316 7.619,-14.914 10.829,-22.702c0.19,-0.459 0.557,-0.823 1.019,-1.009c0.461,-0.185 0.977,-0.177 1.433,0.023l30.234,13.234c0.459,0.202 0.82,0.578 1.002,1.046c0.181,0.467 0.17,0.988 -0.033,1.447c-10.648,24.243 -22.899,45.186 -36.741,62.834c-16.061,20.479 -34.269,36.528 -54.602,48.158c-20.197,11.701 -41.968,20.266 -65.666,25.689c-21.681,4.961 -44.976,7.292 -70.157,6.983c-17.2,-0.259 -33.787,-2.206 -49.963,-5.657c-16.346,-3.487 -32.272,-8.508 -47.988,-14.878c-15.59,-6.319 -30.36,-14.14 -44.207,-23.276c-13.923,-9.186 -26.914,-19.701 -38.89,-31.373c-12.151,-12.231 -23.017,-25.632 -32.598,-40.303c-9.202,-14.092 -17.22,-29.356 -24.049,-45.883c-7.244,-17.527 -12.711,-36.261 -16.281,-56.203c-3.293,-18.392 -4.974,-37.812 -4.948,-58.259c0.025,-20.188 1.771,-39.465 5.054,-57.832c3.517,-19.68 8.796,-38.317 15.624,-55.944c6.911,-16.788 15.22,-32.444 24.828,-46.97c9.862,-14.908 21.092,-28.627 33.584,-41.153c12.132,-12.208 25.537,-23.019 40.217,-32.433c14.167,-9.085 29.522,-16.87 46.078,-23.356c16.717,-6.332 34.07,-11.078 52.06,-14.14c17.334,-2.951 35.26,-4.338 53.777,-4.068c13.41,0.194 26.249,1.084 38.519,2.752c13.25,1.802 25.835,4.512 37.734,8.228c11.131,3.217 22.261,7.202 33.182,11.856c10.477,4.465 20.762,9.546 30.672,15.155Zm17.251,-22.214l-15.996,24.262c-0.316,0.479 -0.949,0.63 -1.447,0.347c-10.117,-5.75 -20.635,-10.945 -31.355,-15.492c-10.843,-4.6 -21.893,-8.535 -32.966,-11.715c-11.808,-3.666 -24.272,-6.327 -37.391,-8.088c-12.181,-1.636 -24.926,-2.497 -38.236,-2.667c-18.362,-0.234 -36.135,1.171 -53.319,4.13c-17.817,3.069 -35,7.809 -51.535,14.111c-16.36,6.449 -31.542,14.183 -45.546,23.205c-14.487,9.333 -27.713,20.044 -39.678,32.135c-12.327,12.42 -23.403,26.015 -33.12,40.784c-9.467,14.388 -17.644,29.892 -24.424,46.481c-6.701,17.428 -11.878,35.881 -15.309,55.362c-3.204,18.191 -4.884,37.278 -4.859,57.264c0.025,20.23 1.734,39.441 5.038,57.63c3.572,19.668 9.01,38.141 16.201,55.418c6.781,16.285 14.728,31.323 23.844,45.198c9.474,14.421 20.212,27.585 32.188,39.573c11.803,11.438 24.624,21.755 38.359,30.761c13.643,8.946 28.189,16.597 43.538,22.767c15.497,6.23 31.197,11.134 47.306,14.522c15.906,3.346 32.211,5.213 49.113,5.42c24.805,0.374 47.76,-1.851 69.131,-6.679c23.286,-5.26 44.689,-13.609 64.563,-25.051c19.937,-11.335 37.784,-27.008 53.553,-47.007c13.369,-16.958 25.243,-37.019 35.628,-60.182l-26.742,-11.786c-3.095,7.296 -6.538,14.419 -10.33,21.295c-4.151,7.528 -8.719,14.759 -13.703,21.598c-4.959,6.804 -10.536,13.407 -16.526,19.622c-5.979,6.203 -12.368,12.018 -18.963,17.259c-6.83,5.428 -14.319,10.237 -22.467,14.423c-7.636,3.923 -15.852,7.301 -24.669,10.138c-9.666,2.968 -19.546,5.14 -29.748,6.514c-9.796,1.32 -19.89,1.904 -30.378,1.748c-14.042,-0.207 -27.495,-1.675 -40.265,-4.575c-13.465,-3.058 -26.172,-7.708 -37.991,-14.142c-11.934,-6.279 -23.043,-13.5 -33.223,-21.852c-10.172,-8.346 -19.418,-17.819 -27.614,-28.585c-8.78,-10.987 -16.492,-22.946 -23.138,-35.775c-6.395,-12.345 -11.804,-25.497 -16.207,-39.324c-5.086,-14.244 -8.634,-29.484 -10.868,-45.512c-2.079,-14.921 -3.02,-30.527 -3.005,-46.649c0.018,-18.441 0.966,-35.834 2.931,-52.342c2.158,-18.137 5.544,-35.208 10.278,-51.434c4.248,-14.21 9.038,-27.406 14.539,-39.429c6.223,-13.598 13.357,-25.697 21.634,-36.06c8.049,-10.311 16.883,-19.155 26.406,-26.71c9.949,-7.892 20.649,-14.378 31.968,-19.649c11.279,-5.64 22.982,-9.701 35.215,-12.286c11.844,-2.503 24.186,-3.621 37.124,-3.439c10.769,0.152 21.15,1.552 30.957,4.024c10.425,2.628 20.2,6.467 29.113,11.311c9.124,5.121 17.41,11.005 25.07,17.753c7.517,6.622 14.431,14.076 20.952,22.473c6.02,8.051 11.588,16.931 16.826,26.641c4.744,8.795 9.217,18.272 13.514,28.462c3.887,10.129 7.404,19.911 10.465,29.345c3.301,10.176 6.072,19.948 8.2,29.313l30.936,0.413l-3.324,-184.876l-30.248,-0.396Z"/><path d="M544.524,574.607c-34.301,-0.468 -66.151,-7.711 -97.185,-20.238c-31.034,-12.527 -58.802,-31.061 -82.486,-54.077c-23.683,-23.773 -42.467,-52.018 -56.351,-85.491c-13.884,-33.472 -21.234,-71.394 -21.234,-113.754c0,-41.604 7.35,-79.325 20.417,-113.186c13.884,-33.85 33.485,-63.083 57.985,-87.71c23.684,-23.882 52.268,-42.402 85.752,-55.561c32.668,-12.413 67.785,-18.741 105.353,-18.227c27.767,0.379 53.084,3.751 75.951,10.871c22.051,6.353 44.101,15.731 64.519,27.356l16.333,-24.739l31.851,0.436l3.267,186.883l-32.668,-0.447c-4.083,-18.21 -10.617,-37.966 -18.783,-59.258c-8.984,-21.303 -18.784,-39.591 -30.218,-54.876c-13.067,-16.82 -27.767,-29.88 -45.734,-39.959c-17.151,-9.312 -37.568,-14.886 -59.618,-15.187c-26.134,-0.357 -49.818,4.614 -71.869,15.66c-22.05,10.288 -41.651,25.149 -57.984,46.106c-15.517,19.455 -26.951,45.018 -35.934,75.152c-8.984,30.891 -13.067,64.875 -13.067,103.453c0,33.283 4.083,64.352 13.883,91.718c8.984,28.11 22.051,53.251 39.201,74.665c16.334,21.404 36.751,37.568 60.435,49.994c22.867,12.415 49.001,18.068 77.585,18.458c21.234,0.29 40.834,-2.468 59.618,-8.263c17.967,-5.805 33.484,-13.914 46.551,-24.326c13.067,-10.411 25.317,-23.103 35.118,-36.585c9.8,-13.482 17.967,-28.499 24.5,-44.295l30.218,13.273c-22.868,51.881 -53.085,88.533 -90.653,109.956c-38.384,22.169 -82.485,32.913 -134.753,32.198Z" style="fill:#fff;fill-rule:nonzero;"/><path d="M696.898,63.141l15.788,-23.879c0.201,-0.304 0.543,-0.485 0.907,-0.48l31.85,0.454c0.568,0.008 1.027,0.465 1.037,1.032c0,0 3.172,186.885 3.172,186.885c0.005,0.259 -0.096,0.508 -0.278,0.692c-0.183,0.183 -0.432,0.285 -0.691,0.281l-32.668,-0.457c-0.438,-0.006 -0.814,-0.311 -0.91,-0.739c-2.136,-9.534 -4.946,-19.492 -8.312,-29.875c-3.048,-9.405 -6.553,-19.156 -10.413,-29.225c-4.26,-10.105 -8.703,-19.53 -13.42,-28.275c-5.192,-9.625 -10.716,-18.425 -16.675,-26.389c-6.438,-8.284 -13.274,-15.651 -20.707,-22.194c-7.563,-6.658 -15.744,-12.462 -24.739,-17.506c-8.769,-4.756 -18.398,-8.527 -28.665,-11.106c-9.667,-2.428 -19.899,-3.798 -30.513,-3.939c-12.786,-0.169 -24.983,0.943 -36.685,3.43c-12.061,2.563 -23.596,6.587 -34.738,12.177c-11.19,5.231 -21.745,11.647 -31.554,19.451c-9.386,7.467 -18.089,16.205 -26.023,26.4c-8.166,10.253 -15.188,22.212 -21.313,35.647c-5.445,11.941 -10.179,25.047 -14.373,39.151c-4.67,16.11 -8.002,33.062 -10.112,51.071c-1.925,16.423 -2.832,33.724 -2.815,52.066c0.015,16.002 0.976,31.489 3.068,46.295c2.239,15.843 5.771,30.905 10.841,45.022c4.397,13.715 9.77,26.718 16.122,38.918c6.588,12.654 14.229,24.443 22.941,35.298c8.103,10.594 17.216,19.889 27.237,28.074c10.046,8.205 21.006,15.292 32.794,21.461c11.61,6.286 24.068,10.811 37.265,13.777c12.572,2.826 25.813,4.237 39.631,4.411c10.325,0.129 20.26,-0.467 29.9,-1.789c10.02,-1.374 19.72,-3.533 29.188,-6.467c8.609,-2.794 16.649,-6.122 24.119,-9.984c7.933,-4.101 15.223,-8.806 21.869,-14.115c6.463,-5.163 12.724,-10.891 18.58,-16.998c5.861,-6.112 11.317,-12.604 16.165,-19.291c4.88,-6.73 9.348,-13.846 13.407,-21.25c4.01,-7.316 7.619,-14.914 10.829,-22.702c0.19,-0.46 0.557,-0.823 1.018,-1.009c0.462,-0.185 0.978,-0.177 1.434,0.023l30.234,13.234c0.459,0.202 0.819,0.578 1.001,1.045c0.182,0.468 0.171,0.989 -0.032,1.448c-10.648,24.243 -22.899,45.186 -36.741,62.834c-16.061,20.478 -34.269,36.528 -54.603,48.158c-20.196,11.701 -41.967,20.266 -65.665,25.689c-21.681,4.961 -44.976,7.292 -70.157,6.983c-17.2,-0.259 -33.787,-2.206 -49.964,-5.657c-16.345,-3.487 -32.272,-8.509 -47.987,-14.878c-15.59,-6.319 -30.36,-14.141 -44.207,-23.276c-13.923,-9.187 -26.914,-19.701 -38.89,-31.373c-12.151,-12.231 -23.017,-25.632 -32.598,-40.303c-9.202,-14.092 -17.22,-29.356 -24.05,-45.883c-7.243,-17.527 -12.71,-36.261 -16.28,-56.203c-3.293,-18.392 -4.974,-37.812 -4.948,-58.259c0.025,-20.189 1.771,-39.465 5.054,-57.833c3.517,-19.679 8.796,-38.316 15.624,-55.943c6.911,-16.788 15.22,-32.444 24.828,-46.97c9.862,-14.909 21.092,-28.627 33.584,-41.153c12.132,-12.208 25.537,-23.019 40.217,-32.433c14.167,-9.086 29.522,-16.87 46.078,-23.356c16.717,-6.332 34.07,-11.078 52.059,-14.14c17.335,-2.951 35.261,-4.338 53.778,-4.068c13.41,0.194 26.249,1.084 38.519,2.752c13.249,1.802 25.835,4.512 37.734,8.228c11.131,3.217 22.261,7.202 33.182,11.856c10.477,4.465 20.762,9.545 30.672,15.154Zm17.251,-22.213l-15.996,24.262c-0.316,0.479 -0.949,0.63 -1.447,0.346c-10.117,-5.749 -20.635,-10.944 -31.355,-15.491c-10.843,-4.6 -21.893,-8.535 -32.966,-11.716c-11.808,-3.666 -24.272,-6.326 -37.391,-8.088c-12.181,-1.635 -24.926,-2.496 -38.236,-2.667c-18.362,-0.234 -36.135,1.172 -53.319,4.131c-17.817,3.069 -35,7.808 -51.535,14.111c-16.36,6.449 -31.542,14.183 -45.546,23.205c-14.487,9.333 -27.713,20.044 -39.678,32.134c-12.327,12.421 -23.403,26.015 -33.12,40.785c-9.467,14.388 -17.644,29.892 -24.424,46.481c-6.701,17.428 -11.878,35.881 -15.309,55.362c-3.204,18.191 -4.884,37.278 -4.859,57.264c0.025,20.23 1.734,39.441 5.038,57.63c3.572,19.668 9.01,38.141 16.201,55.417c6.781,16.286 14.728,31.323 23.844,45.199c9.474,14.421 20.212,27.585 32.188,39.573c11.803,11.437 24.624,21.755 38.359,30.761c13.643,8.946 28.189,16.597 43.538,22.767c15.497,6.23 31.197,11.134 47.306,14.522c15.905,3.346 32.21,5.213 49.113,5.42c24.805,0.373 47.76,-1.851 69.131,-6.679c23.286,-5.26 44.689,-13.61 64.563,-25.051c19.937,-11.335 37.784,-27.008 53.553,-47.008c13.369,-16.957 25.243,-37.018 35.628,-60.181l-26.742,-11.787c-3.095,7.297 -6.538,14.42 -10.33,21.296c-4.151,7.528 -8.719,14.759 -13.703,21.598c-4.959,6.804 -10.536,13.407 -16.526,19.621c-5.979,6.204 -12.369,12.019 -18.963,17.26c-6.831,5.428 -14.319,10.237 -22.467,14.423c-7.636,3.923 -15.852,7.301 -24.669,10.138c-9.666,2.968 -19.546,5.14 -29.748,6.514c-9.796,1.319 -19.89,1.904 -30.379,1.748c-14.041,-0.207 -27.494,-1.675 -40.264,-4.575c-13.465,-3.058 -26.172,-7.708 -37.991,-14.143c-11.935,-6.278 -23.043,-13.499 -33.223,-21.851c-10.172,-8.346 -19.418,-17.82 -27.614,-28.585c-8.78,-10.987 -16.492,-22.946 -23.138,-35.775c-6.395,-12.345 -11.804,-25.497 -16.207,-39.324c-5.086,-14.244 -8.634,-29.484 -10.868,-45.512c-2.079,-14.922 -3.02,-30.527 -3.005,-46.649c0.018,-18.441 0.966,-35.834 2.93,-52.342c2.159,-18.137 5.545,-35.208 10.279,-51.434c4.247,-14.21 9.038,-27.406 14.539,-39.429c6.223,-13.598 13.357,-25.697 21.634,-36.06c8.048,-10.312 16.883,-19.155 26.406,-26.71c9.949,-7.892 20.649,-14.378 31.968,-19.649c11.279,-5.64 22.982,-9.702 35.215,-12.286c11.844,-2.503 24.185,-3.622 37.124,-3.439c10.769,0.152 21.15,1.552 30.957,4.024c10.425,2.628 20.2,6.467 29.113,11.311c9.124,5.12 17.41,11.005 25.07,17.753c7.517,6.622 14.431,14.076 20.952,22.473c6.02,8.051 11.588,16.931 16.826,26.641c4.743,8.795 9.216,18.272 13.514,28.462c3.887,10.129 7.404,19.911 10.465,29.345c3.301,10.176 6.072,19.948 8.2,29.313l30.936,0.413l-3.324,-184.876l-30.248,-0.396Z"/><path d="M542.388,582.626c-34.3,-0.469 -66.151,-7.712 -97.185,-20.239c-31.034,-12.527 -58.802,-31.06 -82.485,-54.077c-23.684,-23.773 -42.468,-52.018 -56.352,-85.49c-13.883,-33.473 -21.234,-71.395 -21.234,-113.755c0,-41.604 7.351,-79.325 20.418,-113.186c13.883,-33.849 33.484,-63.082 57.984,-87.71c23.684,-23.882 52.268,-42.402 85.752,-55.56c32.668,-12.413 67.785,-18.741 105.353,-18.228c27.767,0.379 53.084,3.751 75.951,10.871c22.051,6.353 44.101,15.731 64.519,27.357l16.333,-24.739l31.851,0.435l3.267,186.883l-32.668,-0.446c-4.083,-18.21 -10.617,-37.967 -18.783,-59.259c-8.984,-21.302 -18.784,-39.591 -30.218,-54.875c-13.067,-16.82 -27.767,-29.881 -45.734,-39.96c-17.151,-9.311 -37.568,-14.885 -59.618,-15.186c-26.134,-0.358 -49.818,4.614 -71.869,15.659c-22.05,10.289 -41.651,25.15 -57.984,46.106c-15.517,19.456 -26.951,45.018 -35.934,75.153c-8.984,30.89 -13.067,64.874 -13.067,103.452c0,33.283 4.083,64.352 13.883,91.718c8.984,28.111 22.051,53.251 39.201,74.666c16.334,21.403 36.751,37.567 60.435,49.993c22.867,12.416 49.001,18.068 77.585,18.458c21.234,0.291 40.834,-2.467 59.618,-8.262c17.967,-5.806 33.484,-13.915 46.551,-24.326c13.067,-10.412 25.317,-23.104 35.118,-36.586c9.8,-13.482 17.967,-28.499 24.5,-44.294l30.218,13.272c-22.868,51.881 -53.085,88.533 -90.653,109.957c-38.384,22.168 -82.485,32.912 -134.753,32.198Z" style="fill:#fff;fill-rule:nonzero;"/><path d="M694.762,71.16l15.788,-23.879c0.201,-0.304 0.543,-0.485 0.907,-0.48l31.85,0.453c0.568,0.008 1.027,0.465 1.037,1.033l3.172,186.884c0.005,0.259 -0.096,0.509 -0.278,0.692c-0.183,0.184 -0.432,0.285 -0.691,0.282l-32.668,-0.457c-0.438,-0.006 -0.814,-0.312 -0.91,-0.739c-2.136,-9.534 -4.946,-19.493 -8.312,-29.876c-3.048,-9.404 -6.552,-19.156 -10.413,-29.225c-4.26,-10.105 -8.703,-19.53 -13.42,-28.275c-5.192,-9.624 -10.716,-18.424 -16.675,-26.389c-6.438,-8.284 -13.274,-15.651 -20.707,-22.194c-7.563,-6.658 -15.744,-12.462 -24.739,-17.506c-8.769,-4.756 -18.398,-8.527 -28.665,-11.105c-9.667,-2.428 -19.899,-3.799 -30.513,-3.94c-12.786,-0.168 -24.983,0.943 -36.685,3.43c-12.061,2.563 -23.596,6.587 -34.738,12.177c-11.19,5.231 -21.745,11.648 -31.554,19.452c-9.386,7.467 -18.089,16.205 -26.023,26.399c-8.166,10.253 -15.188,22.212 -21.313,35.647c-5.445,11.942 -10.179,25.048 -14.373,39.152c-4.67,16.109 -8.002,33.061 -10.112,51.071c-1.924,16.422 -2.832,33.724 -2.815,52.065c0.015,16.002 0.976,31.49 3.068,46.296c2.239,15.843 5.771,30.904 10.841,45.021c4.397,13.715 9.77,26.718 16.122,38.919c6.588,12.653 14.229,24.443 22.941,35.297c8.103,10.594 17.216,19.89 27.237,28.074c10.046,8.205 21.006,15.292 32.794,21.461c11.61,6.287 24.068,10.811 37.265,13.777c12.572,2.826 25.813,4.238 39.631,4.411c10.325,0.129 20.26,-0.467 29.9,-1.789c10.02,-1.374 19.72,-3.533 29.188,-6.467c8.609,-2.794 16.649,-6.121 24.119,-9.983c7.933,-4.102 15.223,-8.806 21.869,-14.115c6.463,-5.164 12.724,-10.892 18.58,-16.999c5.861,-6.111 11.317,-12.603 16.165,-19.291c4.88,-6.73 9.348,-13.845 13.407,-21.249c4.01,-7.316 7.619,-14.915 10.829,-22.703c0.19,-0.459 0.557,-0.823 1.018,-1.008c0.462,-0.186 0.978,-0.178 1.434,0.022c0,0 30.234,13.234 30.234,13.234c0.459,0.202 0.82,0.578 1.001,1.046c0.182,0.467 0.171,0.988 -0.032,1.447c-10.648,24.243 -22.899,45.186 -36.741,62.834c-16.061,20.479 -34.269,36.528 -54.603,48.158c-20.196,11.702 -41.967,20.266 -65.665,25.689c-21.681,4.962 -44.976,7.292 -70.157,6.984c-17.2,-0.26 -33.787,-2.207 -49.964,-5.657c-16.345,-3.487 -32.271,-8.509 -47.987,-14.879c-15.59,-6.319 -30.36,-14.14 -44.207,-23.276c-13.923,-9.186 -26.914,-19.7 -38.89,-31.373c-12.151,-12.231 -23.017,-25.632 -32.598,-40.303c-9.202,-14.092 -17.22,-29.355 -24.05,-45.883c-7.243,-17.527 -12.71,-36.261 -16.28,-56.202c-3.293,-18.393 -4.974,-37.813 -4.948,-58.26c0.025,-20.188 1.771,-39.465 5.054,-57.832c3.517,-19.68 8.796,-38.317 15.624,-55.943c6.911,-16.789 15.22,-32.445 24.828,-46.971c9.862,-14.908 21.092,-28.626 33.584,-41.153c12.132,-12.208 25.537,-23.019 40.217,-32.433c14.167,-9.085 29.522,-16.869 46.078,-23.356c16.717,-6.332 34.07,-11.078 52.059,-14.14c17.335,-2.95 35.261,-4.338 53.778,-4.068c13.41,0.194 26.249,1.084 38.519,2.753c13.249,1.801 25.835,4.511 37.734,8.228c11.131,3.216 22.261,7.201 33.182,11.855c10.477,4.465 20.762,9.546 30.672,15.155Zm17.251,-22.214l-15.996,24.263c-0.316,0.478 -0.949,0.63 -1.447,0.346c-10.117,-5.749 -20.635,-10.945 -31.355,-15.492c-10.843,-4.599 -21.893,-8.535 -32.966,-11.715c-11.808,-3.666 -24.272,-6.327 -37.391,-8.088c-12.181,-1.636 -24.926,-2.496 -38.236,-2.667c-18.362,-0.234 -36.135,1.171 -53.319,4.13c-17.817,3.069 -35,7.809 -51.535,14.112c-16.36,6.448 -31.542,14.183 -45.546,23.204c-14.487,9.333 -27.713,20.044 -39.678,32.135c-12.327,12.421 -23.403,26.015 -33.12,40.784c-9.467,14.388 -17.644,29.892 -24.424,46.481c-6.701,17.428 -11.878,35.881 -15.309,55.362c-3.204,18.191 -4.884,37.279 -4.859,57.264c0.025,20.23 1.734,39.441 5.038,57.631c3.572,19.668 9.01,38.141 16.201,55.417c6.781,16.286 14.728,31.323 23.844,45.199c9.474,14.42 20.212,27.585 32.188,39.572c11.803,11.438 24.624,21.755 38.359,30.762c13.643,8.945 28.189,16.596 43.538,22.766c15.497,6.23 31.197,11.134 47.306,14.523c15.905,3.345 32.211,5.212 49.113,5.419c24.805,0.374 47.76,-1.851 69.131,-6.679c23.286,-5.26 44.689,-13.609 64.563,-25.05c19.937,-11.335 37.784,-27.009 53.553,-47.008c13.369,-16.958 25.243,-37.019 35.628,-60.182l-26.742,-11.786c-3.095,7.296 -6.538,14.42 -10.33,21.296c-4.151,7.527 -8.719,14.759 -13.703,21.597c-4.959,6.804 -10.536,13.407 -16.526,19.622c-5.979,6.203 -12.368,12.019 -18.963,17.26c-6.831,5.428 -14.319,10.236 -22.467,14.422c-7.636,3.923 -15.852,7.301 -24.669,10.138c-9.666,2.969 -19.546,5.14 -29.748,6.514c-9.796,1.32 -19.89,1.904 -30.379,1.749c-14.041,-0.208 -27.494,-1.676 -40.264,-4.576c-13.465,-3.058 -26.172,-7.708 -37.991,-14.142c-11.934,-6.279 -23.043,-13.5 -33.223,-21.852c-10.172,-8.345 -19.418,-17.819 -27.614,-28.585c-8.78,-10.987 -16.492,-22.945 -23.138,-35.775c-6.395,-12.345 -11.804,-25.496 -16.207,-39.324c-5.086,-14.244 -8.634,-29.484 -10.868,-45.512c-2.079,-14.921 -3.02,-30.527 -3.005,-46.649c0.018,-18.441 0.966,-35.834 2.93,-52.342c2.159,-18.137 5.545,-35.207 10.279,-51.434c4.247,-14.21 9.038,-27.406 14.539,-39.429c6.223,-13.597 13.357,-25.696 21.634,-36.059c8.048,-10.312 16.883,-19.156 26.406,-26.71c9.949,-7.893 20.649,-14.379 31.968,-19.65c11.279,-5.64 22.982,-9.701 35.215,-12.286c11.844,-2.503 24.185,-3.621 37.124,-3.438c10.769,0.151 21.15,1.551 30.957,4.024c10.425,2.627 20.2,6.466 29.113,11.31c9.124,5.121 17.41,11.005 25.07,17.753c7.517,6.622 14.431,14.077 20.952,22.473c6.02,8.051 11.588,16.931 16.826,26.641c4.743,8.796 9.217,18.272 13.514,28.462c3.887,10.129 7.404,19.912 10.465,29.345c3.301,10.177 6.072,19.948 8.2,29.313l30.936,0.413l-3.324,-184.876l-30.248,-0.396Z"/></g></g></svg>