<svg viewBox="0 0 643 643" xmlns="http://www.w3.org/2000/svg" fill-rule="evenodd" clip-rule="evenodd" stroke-linejoin="round" stroke-miterlimit="2"><path d="M522.811 424.662c-16.737 0-32.504 4.221-46.306 11.639l-50.174-50.175a122.298 122.298 0 0018.063-55.461h20.51c4.378 21.665 23.563 38.029 46.5 38.029 26.159 0 47.441-21.282 47.441-47.441 0-26.16-21.282-47.442-47.441-47.442-22.937 0-42.122 16.364-46.5 38.029h-20.51a122.293 122.293 0 00-18.062-55.461l19.551-19.551c3.675-3.675 3.675-9.635 0-13.309-3.675-3.675-9.635-3.675-13.309 0l-17.473 17.472a122.763 122.763 0 00-13.582-13.583l66.988-66.988a99.134 99.134 0 006.456 7.128 98.715 98.715 0 007.128 6.455l-18.391 18.39a9.41 9.41 0 000 13.31 9.379 9.379 0 006.655 2.756 9.378 9.378 0 006.654-2.756l21.034-21.033c14.418 7.709 30.366 11.578 46.319 11.578 25.133 0 50.268-9.567 69.4-28.7 18.537-18.537 28.745-43.185 28.745-69.401 0-26.216-10.207-50.864-28.747-69.401C595.223 10.209 570.578 0 544.36 0c-26.216 0-50.863 10.209-69.4 28.747-31.279 31.279-36.977 78.586-17.121 115.72l-71.712 71.712a122.287 122.287 0 00-55.461-18.064v-45.861c21.665-4.378 38.029-23.564 38.029-46.5 0-26.16-21.282-47.441-47.441-47.441-26.16 0-47.442 21.281-47.442 47.441 0 22.936 16.364 42.122 38.03 46.5v45.861a122.32 122.32 0 00-55.462 18.064l-56.413-56.413a85.57 85.57 0 008.371-36.898c0-47.129-38.342-85.471-85.471-85.471-13.96 0-27.817 3.445-40.071 9.962-4.589 2.44-6.331 8.139-3.891 12.729 2.439 4.589 8.139 6.333 12.729 3.892 9.542-5.078 20.343-7.761 31.233-7.761 36.75 0 66.648 29.898 66.648 66.648 0 7.994-1.44 15.888-4.201 23.304a28.231 28.231 0 00-15.049-4.33c-7.588 0-14.726 2.958-20.095 8.329-5.371 5.37-8.329 12.51-8.329 20.102 0 5.407 1.526 10.57 4.33 15.043a66.79 66.79 0 01-23.304 4.201c-36.749 0-66.648-29.897-66.648-66.648 0-11.049 2.757-21.989 7.974-31.638 2.473-4.573.769-10.283-3.804-12.756-4.573-2.472-10.284-.769-12.756 3.803-6.697 12.39-10.237 26.426-10.237 40.59 0 47.129 38.342 85.471 85.471 85.471a85.551 85.551 0 0036.897-8.371l56.415 56.413a122.291 122.291 0 00-18.064 55.462H93.941c-4.378-21.666-23.563-38.03-46.5-38.03C21.282 273.812 0 295.094 0 321.254c0 26.159 21.282 47.441 47.441 47.441 22.937 0 42.122-16.364 46.5-38.029h104.173c1.484 19.759 7.646 38.656 18.064 55.461l-42.062 42.061c-3.676 3.676-3.676 9.636 0 13.31a9.38 9.38 0 006.654 2.758 9.379 9.379 0 006.656-2.758l39.98-39.981a122.763 122.763 0 0013.582 13.583L130.576 525.512a73.422 73.422 0 00-13.582-13.582l39.338-39.339c3.676-3.676 3.676-9.635 0-13.309-3.675-3.676-9.635-3.676-13.309 0l-42.957 42.957a72.374 72.374 0 00-27.272-5.321C32.655 496.919 0 529.574 0 569.713c0 40.14 32.655 72.794 72.794 72.794 40.139 0 72.794-32.654 72.794-72.794a72.374 72.374 0 00-5.32-27.27L256.38 426.331c16.81 10.417 35.704 16.581 55.462 18.062v45.862c-21.666 4.379-38.03 23.563-38.03 46.5 0 26.16 21.282 47.442 47.442 47.442 26.159 0 47.441-21.282 47.441-47.442 0-22.937-16.364-42.121-38.029-46.5v-45.862c19.757-1.481 38.65-7.646 55.461-18.063l50.174 50.174c-7.417 13.802-11.637 29.569-11.637 46.306 0 54.118 44.027 98.147 98.147 98.147 54.118 0 98.147-44.029 98.147-98.147 0-54.12-44.029-98.148-98.147-98.148zM488.27 42.057c14.982-14.983 34.902-23.234 56.09-23.234 21.19 0 41.108 8.251 56.091 23.234 14.982 14.982 23.233 34.902 23.233 56.09 0 21.187-8.251 41.108-23.233 56.09-30.929 30.927-81.253 30.928-112.181 0-30.929-30.929-30.929-81.252 0-112.18zM72.794 623.684c-29.76 0-53.971-24.211-53.971-53.971 0-29.758 24.211-53.97 53.971-53.97 29.759 0 53.97 24.21 53.97 53.97 0 29.76-24.21 53.971-53.97 53.971zm438.607-331.047c15.781 0 28.617 12.836 28.617 28.617 0 15.78-12.836 28.618-28.617 28.618-15.78 0-28.617-12.838-28.617-28.618 0-15.781 12.838-28.617 28.617-28.617zM292.635 105.753c0-15.781 12.838-28.618 28.619-28.618 15.78 0 28.618 12.837 28.618 28.618 0 15.78-12.838 28.618-28.618 28.618-15.781 0-28.619-12.838-28.619-28.618zM163.481 163.48a9.532 9.532 0 016.784-2.815c2.568 0 4.982 1 6.797 2.816l63.929 63.928a122.85 122.85 0 00-13.583 13.582l-63.928-63.93a9.531 9.531 0 01-2.816-6.79c0-2.564 1-4.976 2.817-6.791zM47.441 349.872c-15.78 0-28.618-12.838-28.618-28.618 0-15.781 12.838-28.617 28.618-28.617 15.781 0 28.619 12.836 28.619 28.617 0 15.78-12.839 28.618-28.619 28.618zm302.431 186.883c0 15.781-12.838 28.617-28.618 28.617-15.781 0-28.619-12.836-28.619-28.617 0-15.78 12.838-28.618 28.619-28.618 15.78 0 28.618 12.838 28.618 28.618zm-28.618-110.83c-21.906 0-42.873-6.691-60.645-19.356a104.341 104.341 0 01-24.678-24.683c-12.658-17.76-19.348-38.727-19.348-60.632 0-21.906 6.691-42.873 19.356-60.645a104.356 104.356 0 0124.682-24.678c17.76-12.657 38.727-19.348 60.633-19.348 21.905 0 42.872 6.691 60.644 19.356a104.341 104.341 0 0124.679 24.682c12.657 17.76 19.348 38.727 19.348 60.633 0 18.116-4.59 35.587-13.334 51.137l-3.553-3.554c-5.371-5.371-12.508-8.331-20.096-8.331-7.596 0-14.738 2.959-20.107 8.33-5.372 5.37-8.33 12.51-8.33 20.102 0 7.592 2.958 14.732 8.33 20.101l3.555 3.555c-15.549 8.741-33.02 13.331-51.136 13.331zm60.891-30.198a9.54 9.54 0 01-2.816-6.79 9.548 9.548 0 012.816-6.792 9.553 9.553 0 016.797-2.814c2.56 0 4.97 1 6.785 2.816l64.84 64.838a98.843 98.843 0 00-13.583 13.583l-64.839-64.841zm140.666 206.407c-43.74 0-79.324-35.584-79.324-79.323 0-43.74 35.584-79.324 79.324-79.324 43.739 0 79.323 35.584 79.323 79.324 0 43.739-35.584 79.323-79.323 79.323z" fill="#fff" fill-rule="nonzero"/></svg>