<svg viewBox="0 0 1222 208" xmlns="http://www.w3.org/2000/svg" fill-rule="evenodd" clip-rule="evenodd" stroke-linejoin="round" stroke-miterlimit="2"><path d="M56.036 100.613c7.905 0 14.868-.946 20.89-2.834 6.117-1.984 11.199-4.724 15.244-8.219 4.141-3.591 7.246-7.841 9.316-12.755 2.07-4.913 3.106-10.344 3.106-16.296 0-12.092-3.952-21.209-11.857-27.35-7.904-6.14-19.761-9.211-35.57-9.211H27.242v76.665h28.794zm93.441 104.723h-24.278c-4.987 0-8.657-1.938-11.009-5.811L61.682 126.97c-1.599-2.266-3.34-3.873-5.222-4.817-1.788-1.039-4.611-1.559-8.469-1.559H27.242v84.742H0V2.267h57.165c12.798 0 23.855 1.323 33.171 3.967 9.315 2.551 16.985 6.282 23.007 11.196 6.117 4.912 10.633 10.864 13.55 17.855 2.917 6.897 4.375 14.643 4.375 23.24 0 7.18-1.128 13.887-3.386 20.123a53.375 53.375 0 01-9.881 16.863c-4.235 4.912-9.457 9.117-15.668 12.612-6.116 3.496-13.079 6.141-20.89 7.936 3.482 1.984 6.493 4.865 9.034 8.645l59 80.632zM361.94 103.873c0 15.209-2.399 29.191-7.198 41.945-4.8 12.659-11.574 23.57-20.326 32.735-8.751 9.163-19.291 16.296-31.617 21.398-12.234 5.006-25.783 7.51-40.651 7.51-14.869 0-28.418-2.504-40.652-7.51-12.232-5.102-22.725-12.235-31.476-21.398-8.751-9.165-15.526-20.076-20.325-32.735-4.8-12.754-7.198-26.736-7.198-41.945 0-15.212 2.398-29.146 7.198-41.805 4.799-12.755 11.574-23.713 20.325-32.877 8.751-9.258 19.244-16.437 31.476-21.539C233.73 2.55 247.279 0 262.148 0c14.868 0 28.417 2.55 40.651 7.652 12.326 5.102 22.866 12.281 31.617 21.539 8.752 9.164 15.526 20.122 20.326 32.877 4.799 12.659 7.198 26.593 7.198 41.805zm-28.088 0c0-12.471-1.694-23.666-5.082-33.586-3.388-9.919-8.186-18.281-14.397-25.082-6.211-6.897-13.739-12.188-22.584-15.872-8.845-3.684-18.726-5.527-29.641-5.527-10.822 0-20.655 1.843-29.501 5.527-8.845 3.684-16.421 8.975-22.725 15.872-6.21 6.801-11.009 15.163-14.397 25.082-3.387 9.92-5.082 21.115-5.082 33.586 0 12.469 1.695 23.665 5.082 33.584 3.388 9.825 8.187 18.186 14.397 25.083 6.304 6.802 13.88 12.044 22.725 15.729 8.846 3.59 18.679 5.385 29.501 5.385 10.915 0 20.796-1.795 29.641-5.385 8.845-3.685 16.373-8.927 22.584-15.729 6.211-6.897 11.009-15.258 14.397-25.083 3.388-9.919 5.082-21.115 5.082-33.584zm242.573 0c0 15.209-2.4 29.05-7.198 41.52-4.8 12.471-11.574 23.145-20.326 32.027-8.752 8.879-19.291 15.776-31.617 20.689-12.234 4.818-25.783 7.227-40.652 7.227h-75.515V2.267h75.515c14.869 0 28.418 2.456 40.652 7.368 12.326 4.819 22.865 11.715 31.617 20.69 8.752 8.88 15.526 19.556 20.326 32.026 4.798 12.471 7.198 26.31 7.198 41.522zm-28.088 0c0-12.471-1.695-23.619-5.082-33.444-3.388-9.826-8.187-18.139-14.397-24.941-6.211-6.802-13.738-11.998-22.584-15.588-8.845-3.59-18.726-5.385-29.642-5.385H428.5v158.573h48.132c10.916 0 20.797-1.797 29.642-5.385 8.846-3.59 16.373-8.739 22.584-15.446 6.21-6.803 11.009-15.117 14.397-24.941 3.387-9.826 5.082-20.974 5.082-33.443zm138.536 79.639c7.81 0 14.537-.897 20.187-2.692 5.645-1.795 10.254-4.299 13.833-7.51 3.669-3.307 6.351-7.18 8.044-11.621 1.695-4.534 2.542-9.495 2.542-14.88 0-10.485-3.72-18.752-11.151-24.798-7.439-6.141-18.587-9.212-33.455-9.212h-43.757v70.713h43.757zM643.116 23.948v69.296h36.134c7.717 0 14.397-.85 20.044-2.551 5.74-1.7 10.448-4.062 14.118-7.085 3.761-3.024 6.535-6.66 8.327-10.911 1.786-4.346 2.682-9.071 2.682-14.172 0-11.998-3.578-20.736-10.728-26.215-7.155-5.575-18.257-8.362-33.313-8.362h-37.264zM680.38 2.267c12.421 0 23.101 1.227 32.043 3.684 9.033 2.457 16.416 5.952 22.161 10.487 5.83 4.534 10.113 10.108 12.844 16.721 2.725 6.519 4.094 13.888 4.094 22.107 0 5.007-.805 9.825-2.4 14.454-1.51 4.536-3.811 8.786-6.916 12.755-3.106 3.967-7.058 7.557-11.857 10.769-4.708 3.117-10.261 5.668-16.656 7.652 14.863 2.834 26.014 8.172 33.453 16.013 7.523 7.747 11.292 17.95 11.292 30.609 0 8.598-1.602 16.439-4.799 23.524-3.105 7.085-7.721 13.179-13.833 18.281-6.027 5.1-13.458 9.069-22.301 11.903-8.851 2.74-18.918 4.11-30.209 4.11h-71.422V2.267h64.506zm242.773 180.679l-.142 22.39H798.377V2.267h124.634v22.39H825.76V92.11h78.761v21.54H825.76v69.296h97.393zm152.907-.709v23.099H961.304V2.267h27.243v179.97h87.513zm145.006 0v23.099h-114.751V2.267h27.242v179.97h87.509z" fill="#fff" fill-rule="nonzero"/></svg>