<svg viewBox="0 0 163 215" xmlns="http://www.w3.org/2000/svg" fill-rule="evenodd" clip-rule="evenodd" stroke-linejoin="round" stroke-miterlimit="2"><g fill="#fff" fill-rule="nonzero" stroke="#000" stroke-width="1.99"><path d="M84.367 173.85h-6.67a3.335 3.335 0 110-6.67h13.34v-6.67h-6.67v-6.67h-6.67v6.67c-5.525 0-10.005 4.48-10.005 10.005s4.48 10.005 10.005 10.005h6.67a3.335 3.335 0 010 6.67h-13.34v6.67h6.67v6.67h6.67v-6.67c5.525 0 10.005-4.48 10.005-10.005s-4.48-10.005-10.005-10.005zM93.395 82.83l-4.716-4.716-4.312 4.312V60.462h-6.67v21.964l-4.312-4.312-4.716 4.716 12.363 12.362L93.395 82.83z"/><path d="M81.032 140.501c-20.261 0-36.685 16.424-36.685 36.684 0 20.261 16.424 36.685 36.685 36.685 20.26 0 36.684-16.424 36.684-36.685-.024-20.251-16.434-36.66-36.684-36.684zm0 66.699c-16.577 0-30.015-13.438-30.015-30.015 0-16.577 13.438-30.014 30.015-30.014 16.577 0 30.014 13.437 30.014 30.014-.019 16.569-13.445 29.995-30.014 30.015zM92.888 6.543L89.185.993l-8.153 5.436L72.878.993l-3.703 5.55 11.857 7.904 11.856-7.904zM92.888 24.885l-3.703-5.55-8.153 5.436-8.154-5.436-3.703 5.55 11.857 7.904 11.856-7.904zM136.242 6.543l-3.703-5.55-8.153 5.436-8.153-5.436-3.703 5.55 11.856 7.904 11.856-7.904zM136.242 24.885l-3.703-5.55-8.153 5.436-8.153-5.436-3.703 5.55 11.856 7.904 11.856-7.904zM49.534 6.543L45.831.993l-8.154 5.436L29.524.993l-3.703 5.55 11.856 7.904 11.857-7.904zM49.534 24.885l-3.703-5.55-8.154 5.436-8.153-5.436-3.703 5.55 11.856 7.904 11.857-7.904zM64.357 134.767l33.35-8.337v-21.233l43.354-43.354V40.452H21.003v21.391l43.354 43.354v29.57zM27.673 59.081V47.122h106.718v11.959l-43.354 43.354v18.786l-20.01 5.002v-23.788L27.673 59.081zM154.401 133.831h6.67v80.039h-6.67zM141.061 147.171h6.67v66.699h-6.67zM.993 133.831h6.67v80.039H.993zM14.333 147.171h6.67v66.699h-6.67zM127.721 160.51h6.67v53.359h-6.67zM27.673 160.51h6.67v53.359h-6.67zM27.673 147.171h6.67v6.67h-6.67zM14.333 133.831h6.67v6.67h-6.67zM.993 120.491h6.67v6.67H.993zM127.721 147.171h6.67v6.67h-6.67zM141.061 133.831h6.67v6.67h-6.67zM154.401 120.491h6.67v6.67h-6.67z"/></g></svg>