<svg viewBox="0 0 242 252" xmlns="http://www.w3.org/2000/svg" fill-rule="evenodd" clip-rule="evenodd" stroke-linejoin="round" stroke-miterlimit="2"><path d="M54.378 159.245l-.019-.001h-6.17v-.994c8.815-4.821 14.808-14.182 14.808-24.918v-9.536c.02-.221.02-.444 0-.666v-4.608c0-15.649-12.731-28.381-28.381-28.381-15.637 0-28.359 12.711-28.38 28.342l-.002.039v4.417c-.05.349-.05.701 0 1.046v9.348l.002.039c.014 10.719 6.002 20.063 14.806 24.878v.994h-6.17c-7.484 0-13.573 6.089-13.573 13.574v14.809a3.702 3.702 0 003.702 3.702H64.23a3.702 3.702 0 003.702-3.702v-14.809c0-7.478-6.079-13.563-13.554-13.573zM34.615 97.544c8.655 0 16.101 5.269 19.302 12.766a3.698 3.698 0 00-3.466.016c-2.335 1.251-9.732 4.497-15.836 4.497-7.282 0-15.403-4.429-15.48-4.472a3.701 3.701 0 00-3.926.214c3.141-7.632 10.655-13.021 19.406-13.021zm-20.978 35.787l-.001-.019v-8.662l4.822-6.396c3.574 1.602 9.917 3.973 16.157 3.973 6.242 0 12.732-2.378 16.383-3.972l4.594 6.375v8.701c0 11.567-9.41 20.977-20.977 20.977s-20.978-9.409-20.978-20.977zm27.148 27.698v1.917a6.176 6.176 0 01-6.169 6.17 6.177 6.177 0 01-6.17-6.17v-1.917a28.33 28.33 0 006.17.684c2.118 0 4.182-.241 6.169-.684zm19.744 22.895H8.702v-11.107a6.176 6.176 0 016.17-6.169h6.687c1.615 5.69 6.855 9.872 13.057 9.872 6.201 0 11.44-4.181 13.056-9.872h6.677l.01.001a6.177 6.177 0 016.17 6.169v11.106zm175.22-21.566v-43.582c0-.04-.005-.079-.006-.118.001-.046.007-.091.007-.137a28.208 28.208 0 00-5.19-16.329 3.623 3.623 0 00-.423-.594c-5.178-6.949-13.456-11.458-22.769-11.458-15.649 0-28.381 12.731-28.381 28.381 0 .04.005.078.006.118-.001.045-.007.091-.007.137v14.559l.001.019v29.004c-3.012 2.491-4.936 6.256-4.936 10.462v14.809a3.703 3.703 0 003.702 3.702h59.23a3.702 3.702 0 003.702-3.702v-14.808c0-4.206-1.923-7.971-4.936-10.463zm-7.422-44.555l-11.676-5.079 9.248-4.021a20.84 20.84 0 012.428 9.1zm-20.959-20.259a20.877 20.877 0 0113.757 5.162l-34.716 15.097c.381-11.235 9.634-20.259 20.959-20.259zm-20.978 28.34h.001l20.979-9.123 20.975 9.123.001 7.45c0 11.568-9.41 20.978-20.978 20.978-11.567 0-20.977-9.41-20.977-20.978l-.001-.019v-7.431zm41.956 26.546v6.876h0c-.4-.036-.805-.058-1.215-.059l-.019-.001h-6.171v-.994a28.563 28.563 0 007.405-5.822zm-14.808 8.602v1.917a6.177 6.177 0 01-6.17 6.17 6.177 6.177 0 01-6.17-6.17v-1.918a28.34 28.34 0 006.171.684c2.119 0 4.181-.241 6.169-.683zm-19.744-2.78v.994h-6.169c-.416 0-.827.022-1.234.059v-6.875a28.57 28.57 0 007.403 5.822zm39.487 25.675h-51.826V172.82a6.177 6.177 0 016.17-6.17h6.686c1.615 5.691 6.855 9.873 13.057 9.873 6.2 0 11.44-4.181 13.055-9.872h6.688a6.177 6.177 0 016.17 6.17v11.106h0zm-80.188 29.615l-.019-.001h-11.106v-9.288c8.965-6.509 14.809-17.065 14.809-28.966v-22.212c0-21.092-17.161-38.252-38.253-38.252-21.076 0-38.226 17.135-38.251 38.205-.002.141.004.281.017.42l.014.095c.011.087.022.173.039.257.013.071.033.139.051.208.011.045.021.092.034.137.024.077.052.152.08.227l.04.109c.029.072.063.141.097.21.019.039.036.078.056.116.032.06.067.116.101.174.029.046.055.094.085.139.03.045.063.087.094.131.04.055.078.11.121.163.027.033.056.064.084.095.052.059.102.118.157.174.026.026.053.049.081.075.059.056.118.112.182.166.034.028.07.053.105.079.059.046.116.092.178.134.067.045.137.085.207.127.032.019.064.041.097.059.117.065.238.122.363.174.893.377 1.773.717 2.648 1.038v17.753c0 11.9 5.844 22.455 14.807 28.965v9.289H88.906l-.019.001c-10.198.01-18.49 8.309-18.49 18.509v14.806a3.702 3.702 0 003.702 3.702h93.781a3.702 3.702 0 003.702-3.702v-14.806c.001-10.201-8.292-18.5-18.489-18.51zm-34.569-91.315c14.502 0 26.692 10.061 29.973 23.568-.369-.24-.745-.466-1.136-.664-5.874-2.971-12.488-.423-20.147 2.529-10.355 3.989-23.13 8.902-39.43 2.933 1.269-15.853 14.566-28.366 30.74-28.366zm-25.913 53.06v-15.602c15.418 3.292 27.791-1.467 37.265-5.118 6.259-2.411 11.202-4.318 14.142-2.829 2.097 1.061 3.897 4.214 5.354 9.363v14.186c0 10.042-5.246 18.876-13.139 23.923l-.05.032a28.197 28.197 0 01-15.191 4.427c-15.65 0-28.381-12.733-28.381-28.382zm41.954 33.104v6.563l-5.903 2.951-3.968-2.645v-4.379a35.488 35.488 0 009.871-2.49zm-17.275 2.49v4.379l-3.968 2.645-5.905-2.951v-6.564a35.46 35.46 0 009.873 2.491zm46.892 32.274H77.803v-11.104c0-6.124 4.983-11.106 11.106-11.106l.01-.001h13.923l9.026 4.512h.002l.063.032c.055.027.111.047.167.072.069.03.137.063.208.089.091.034.182.06.275.085.046.013.092.03.139.041.125.03.251.052.378.069.016.002.033.007.05.009.145.017.291.027.436.027l.005-.001h.002c.02 0 .04-.003.06-.004.151-.002.3-.011.449-.032.082-.011.162-.034.243-.05.088-.019.177-.033.262-.058.079-.023.155-.055.232-.082.09-.033.179-.063.265-.102.067-.03.13-.066.195-.1.096-.051.191-.102.283-.16.02-.012.041-.021.061-.034l5.35-3.567 5.35 3.567c.02.013.04.022.06.034.093.06.19.111.288.162.063.034.126.069.189.098.089.04.181.071.273.104.074.027.149.058.225.08.088.025.178.04.268.059.079.016.158.039.238.049.149.021.298.03.45.033.02 0 .04.004.06.004h.006c.145 0 .291-.009.436-.027.018-.002.036-.007.053-.009a3.74 3.74 0 00.375-.069c.048-.011.095-.028.143-.042.091-.026.181-.05.271-.083.071-.027.139-.06.209-.09.056-.025.112-.044.166-.071l.063-.032h.002l9.024-4.512h13.924l.01.001c6.123 0 11.106 4.982 11.106 11.106v11.103zm-43.19-162.883a3.701 3.701 0 00-3.702 3.702v19.745a3.702 3.702 0 007.404 0V83.974a3.702 3.702 0 00-3.702-3.702zM83.974 25.975H34.615a3.703 3.703 0 00-3.702 3.702v49.362a3.703 3.703 0 007.404 0v-45.66h45.657a3.702 3.702 0 000-7.404zm123.394 0h-49.357a3.702 3.702 0 00-.001 7.404h45.656v45.66a3.702 3.702 0 007.404 0V29.677a3.701 3.701 0 00-3.702-3.702zM120.991 1.299c-14.289 0-25.913 11.624-25.913 25.912a25.876 25.876 0 009.873 20.342v16.183c0 .029.004.056.005.085a3.355 3.355 0 00.026.37 3.746 3.746 0 00.062.362c.013.058.03.116.045.174.016.058.033.117.052.175.019.056.04.112.061.168a3.111 3.111 0 00.147.33 3.382 3.382 0 00.177.313 3.328 3.328 0 00.335.449l.052.065 4.934 5.43c.018.02.038.036.057.056.051.053.104.105.158.156.04.037.08.075.121.11.052.045.107.087.163.13.045.034.09.07.137.102.056.039.114.074.172.109.048.03.095.061.144.087.065.036.133.068.201.1.043.021.085.044.13.063.091.039.185.072.279.104.023.007.044.017.066.024.351.111.725.171 1.112.171h14.809c.121 0 .242-.006.363-.018.053-.006.105-.015.157-.023.067-.009.133-.017.199-.03.06-.011.118-.028.177-.043.058-.014.115-.027.173-.044.058-.017.115-.039.173-.06.056-.02.112-.038.167-.061.055-.023.108-.049.161-.074.056-.026.111-.051.166-.079.052-.028.102-.06.152-.089.052-.032.106-.061.157-.095.053-.036.104-.075.155-.113.045-.034.091-.065.134-.101.062-.05.12-.104.178-.158.028-.026.057-.048.084-.075l.02-.02.002-.001 4.993-4.915.008-.01c.075-.074.145-.152.214-.233l.036-.039c.077-.093.149-.19.216-.29.03-.045.056-.092.083-.137.036-.058.072-.114.105-.174.026-.048.047-.098.071-.148.029-.059.06-.118.085-.18.019-.045.034-.092.051-.138.025-.067.051-.134.073-.203.012-.042.021-.084.032-.127.02-.075.041-.148.057-.224a3.3 3.3 0 00.051-.341c.005-.039.005-.08.008-.119.006-.087.013-.174.013-.261l.001-.015V47.49a25.89 25.89 0 009.792-20.279c0-14.288-11.624-25.912-25.912-25.912zm8.718 61.38l-2.829 2.785h-11.654l-2.87-3.159V58.06h17.353v4.619zm1.635-20.121a3.594 3.594 0 00-.297.223c-.048.04-.093.084-.139.127-.041.038-.085.074-.125.114-.053.054-.102.111-.152.168-.029.033-.059.065-.087.099-.047.058-.09.118-.134.177-.027.038-.056.075-.081.114-.037.055-.069.111-.103.168-.028.048-.058.096-.084.145-.026.049-.048.099-.072.148-.029.061-.058.12-.083.182-.017.043-.031.086-.047.129-.026.071-.052.141-.074.213-.012.041-.021.082-.032.124-.019.074-.039.147-.054.223-.011.054-.017.109-.025.163-.01.064-.022.126-.028.191a3.886 3.886 0 00-.018.374v5.016h-5.015V33.382h3.702a3.702 3.702 0 000-7.404h-14.809a3.702 3.702 0 000 7.404h3.702v17.274h-4.935v-4.975c0-.123-.006-.247-.019-.369-.006-.066-.019-.129-.029-.193-.008-.053-.013-.108-.025-.161a2.967 2.967 0 00-.061-.247c-.009-.033-.015-.068-.026-.101a3.443 3.443 0 00-.081-.229l-.04-.111c-.028-.066-.06-.13-.09-.194-.022-.044-.042-.091-.066-.135a3.312 3.312 0 00-.089-.151c-.033-.054-.063-.109-.098-.162-.027-.039-.056-.076-.084-.114-.043-.06-.084-.119-.132-.176-.028-.035-.06-.067-.09-.101a3.352 3.352 0 00-.151-.165c-.052-.053-.109-.102-.165-.151-.033-.031-.064-.062-.099-.091a3.82 3.82 0 00-.3-.223 18.496 18.496 0 01-8.229-15.395c.001-10.206 8.305-18.51 18.511-18.51s18.509 8.303 18.509 18.51a18.505 18.505 0 01-8.156 15.346z" fill="#fff" fill-rule="nonzero" stroke="#000" stroke-width="2.6"/></svg>