<svg viewBox="0 0 227 227" xmlns="http://www.w3.org/2000/svg" fill-rule="evenodd" clip-rule="evenodd" stroke-linejoin="round" stroke-miterlimit="2"><path d="M185.406 111.258c-3.985-5.978-6.663-13.977-6.663-19.907 0-6.726-4.62-12.391-10.912-13.995v-7.727a3.637 3.637 0 00-3.637-3.637h-7.64c-1.689-8.29-9.038-14.549-17.82-14.549-11.12 0-19.421-3.328-22.207-8.901-1.233-2.465-5.275-2.465-6.507 0-2.787 5.573-11.088 8.901-22.207 8.901-8.782 0-16.131 6.259-17.82 14.549h-7.64a3.638 3.638 0 00-3.638 3.637v7.712c-6.262 1.582-10.911 7.263-10.911 14.01 0 5.93-2.679 13.929-6.663 19.907a3.631 3.631 0 000 4.035c3.985 5.977 6.663 13.976 6.663 19.906 0 6.726 4.619 12.391 10.911 13.995v7.727a3.637 3.637 0 003.638 3.637h7.64c1.689 8.29 9.038 14.549 17.82 14.549 12.618 0 19.326.375 22.009 8.425a3.638 3.638 0 006.902 0c2.683-8.05 9.391-8.425 22.009-8.425 8.782 0 16.131-6.259 17.82-14.549h7.641a3.637 3.637 0 003.637-3.637v-7.711c6.262-1.582 10.911-7.264 10.911-14.011 0-5.93 2.679-13.929 6.664-19.906a3.635 3.635 0 000-4.035zm-13.938 23.941c0 3.955-3.218 7.173-7.274 7.173a3.637 3.637 0 00-3.637 3.638v7.274h-7.275a3.637 3.637 0 00-3.637 3.637c0 6.017-4.894 10.912-10.911 10.912-9.679 0-19.623 0-25.461 6.999-5.837-6.999-15.781-6.999-25.46-6.999-6.017 0-10.911-4.895-10.911-10.912a3.637 3.637 0 00-3.637-3.637H65.99v-7.274c0-2.009-1.73-3.638-3.738-3.638-3.955 0-7.173-3.218-7.173-7.173 0-6.688-2.556-15.06-6.618-21.924 4.062-6.864 6.618-15.236 6.618-21.925 0-3.954 3.218-7.172 7.274-7.172a3.637 3.637 0 003.637-3.638v-7.274h7.275a3.638 3.638 0 003.637-3.637c0-6.017 4.894-10.912 10.911-10.912 11.28 0 20.22-2.996 25.46-8.375 5.241 5.379 14.181 8.375 25.461 8.375 6.017 0 10.911 4.895 10.911 10.912a3.638 3.638 0 003.637 3.637h7.275v7.274c0 2.009 1.73 3.638 3.738 3.638 3.955 0 7.173 3.218 7.173 7.172 0 6.689 2.556 15.061 6.618 21.925-4.062 6.864-6.618 15.236-6.618 21.924z" fill="#fff" fill-rule="nonzero" stroke="#000" stroke-width="1.99"/><path fill="#fff" stroke="#000" stroke-width="1.99" d="M109.636 22.345h7.274v10.912h-7.274zM216.175 5.216l-14.549 14.549 5.143 5.143 14.549-14.549-5.143-5.143zM207.84 109.638h14.549v7.274H207.84zM109.636 4.16h7.274v10.912h-7.274zM193.291 109.638h7.274v7.274h-7.274zM192.529 76.508l-6.72 2.785 2.785 6.72 6.72-2.785-2.785-6.72zM187.856 33.544l-10.287 10.287 5.144 5.144L193 38.688l-5.144-5.144zM172.423 48.991l-5.144 5.143 5.144 5.144 5.144-5.144-5.144-5.143zM143.32 31.242l-2.785 6.72 6.72 2.784 2.785-6.72-6.72-2.784zM222.766 63.979l-23.52 9.746 2.784 6.72 23.52-9.746-2.784-6.72zM155.845 1l-9.746 23.52 6.72 2.785 9.746-23.52L155.845 1zM10.368 5.226L5.224 10.37l14.549 14.549 5.144-5.144L10.368 5.226zM4.158 109.638h14.549v7.274H4.158zM25.981 109.638h7.274v7.274h-7.274zM34.025 76.501l-2.783 6.721 6.72 2.783 2.784-6.72-6.721-2.784zM38.703 33.547l-5.144 5.144 10.287 10.287 5.144-5.144-10.287-10.287zM54.121 48.977l-5.144 5.144 5.144 5.144 5.144-5.144-5.144-5.144zM83.233 31.232l-6.72 2.785 2.785 6.72 6.72-2.785-2.785-6.72zM3.777 63.984L.993 70.705l23.523 9.743 2.784-6.721-23.523-9.743zM70.703.993l-6.721 2.784L73.726 27.3l6.72-2.784L70.703.993zM109.636 193.293h7.274v10.912h-7.274zM206.768 201.629l-5.144 5.144 14.549 14.549 5.144-5.144-14.549-14.549zM109.636 211.479h7.274v10.912h-7.274zM188.594 140.519l-2.784 6.721 6.721 2.784 2.783-6.721-6.72-2.784zM182.712 177.571l-5.144 5.144 10.288 10.287 5.143-5.143-10.287-10.288zM172.409 167.271l-5.144 5.144 5.144 5.144 5.144-5.144-5.144-5.144zM147.253 185.811l-6.72 2.784 2.785 6.72 6.72-2.784-2.785-6.72zM202.031 146.126l-2.784 6.721 23.523 9.744 2.783-6.721-23.522-9.744zM152.832 199.267l-6.721 2.783 9.743 23.523 6.721-2.784-9.743-23.522zM19.79 201.63L5.241 216.179l5.144 5.144 14.549-14.549-5.144-5.144zM37.954 140.536l-6.72 2.784 2.785 6.72 6.72-2.784-2.785-6.72zM43.846 177.572l-10.287 10.287 5.143 5.144 10.288-10.287-5.144-5.144zM54.111 167.264l-5.144 5.144 5.144 5.143 5.143-5.143-5.143-5.144zM79.293 185.82l-2.784 6.72 6.72 2.785 2.784-6.72-6.72-2.785zM24.513 146.101l-23.52 9.746 2.785 6.72 23.52-9.746-2.785-6.72zM73.706 199.244l-9.746 23.52 6.72 2.784 9.747-23.52-6.721-2.784z"/><path d="M136.505 113.275L148.64 96.7a3.643 3.643 0 00.215-3.968 3.656 3.656 0 00-3.543-1.797l-20.424 2.222-8.286-18.795a3.634 3.634 0 00-3.329-2.17c-1.442 0-2.747.85-3.328 2.17l-8.286 18.795-20.424-2.222a3.672 3.672 0 00-3.543 1.797 3.643 3.643 0 00.215 3.968l12.135 16.575-12.135 16.575a3.643 3.643 0 00-.215 3.968 3.644 3.644 0 003.543 1.797l20.424-2.222 8.286 18.795a3.634 3.634 0 003.328 2.17c1.443 0 2.748-.85 3.329-2.17l8.286-18.795 20.424 2.222a3.63 3.63 0 003.543-1.797 3.643 3.643 0 00-.215-3.968l-12.135-16.575zm-13.478 12.599a3.649 3.649 0 00-3.721 2.149l-6.033 13.684-6.033-13.684a3.634 3.634 0 00-3.721-2.149l-14.87 1.618 8.836-12.067a3.64 3.64 0 000-4.298l-8.836-12.068 14.87 1.618c1.554.16 3.08-.7 3.721-2.149l6.033-13.684 6.034 13.684a3.66 3.66 0 003.72 2.149l14.871-1.618-8.836 12.068a3.64 3.64 0 000 4.298l8.836 12.067-14.871-1.618z" fill="#fff" fill-rule="nonzero" stroke="#000" stroke-width="1.99"/></svg>