<svg viewBox="0 0 210 192" xmlns="http://www.w3.org/2000/svg" fill-rule="evenodd" clip-rule="evenodd" stroke-linejoin="round" stroke-miterlimit="2"><path d="M206.005 140.597a3.062 3.062 0 003.062-3.063v-24.749a3.062 3.062 0 00-3.062-3.063h-3.581a3.063 3.063 0 000 6.125h.518v18.625h-39.249v-18.625h24.44a3.062 3.062 0 000-6.125h-1.752V96.284a3.062 3.062 0 00-3.062-3.062h-75.723v-11.2h31.587a3.062 3.062 0 003.062-3.062V60.81c0-10.786-8.775-19.562-19.562-19.562h-2.272c4.793-4.337 7.81-10.603 7.81-17.561C128.221 10.626 117.595 0 104.534 0 91.473 0 80.847 10.626 80.847 23.687c0 6.958 3.017 13.224 7.81 17.561h-2.272c-10.787 0-19.562 8.776-19.562 19.562v18.15a3.062 3.062 0 003.063 3.062h31.585v11.2H25.749a3.061 3.061 0 00-3.062 3.062v13.438h-1.752a3.063 3.063 0 000 6.125h24.44v18.625H6.125v-18.625h.519a3.062 3.062 0 000-6.125H3.063A3.063 3.063 0 000 112.785v24.749a3.063 3.063 0 003.063 3.063h19.624v20.272H3.063A3.063 3.063 0 000 163.932v24.749a3.062 3.062 0 003.063 3.062h45.373a3.061 3.061 0 003.062-3.062v-24.749a3.062 3.062 0 00-3.062-3.063H28.811v-20.272h19.626a3.063 3.063 0 003.062-3.063v-24.749a3.063 3.063 0 00-3.062-3.063H28.812V99.347h72.659v10.374H81.847a3.061 3.061 0 00-3.062 3.062v24.749a3.062 3.062 0 003.062 3.063h19.624v20.275H81.847a3.063 3.063 0 00-3.063 3.063v24.749a3.063 3.063 0 003.063 3.063h15.541a3.062 3.062 0 000-6.125H84.909v-18.625h39.249v18.625H111.68a3.062 3.062 0 100 6.125h15.541a3.062 3.062 0 003.062-3.063v-24.749a3.062 3.062 0 00-3.062-3.063h-19.625v-20.275h19.624a3.063 3.063 0 003.063-3.063v-24.749a3.062 3.062 0 00-3.063-3.062h-19.624V99.347h72.66v10.375h-19.625a3.063 3.063 0 00-3.063 3.063v24.749a3.063 3.063 0 003.063 3.063h19.625v20.272h-19.624a3.063 3.063 0 00-3.063 3.063v24.749a3.062 3.062 0 003.063 3.062h45.373a3.061 3.061 0 003.062-3.062v-24.749a3.062 3.062 0 00-3.062-3.063h-19.624v-20.272h19.624zM86.972 23.687c0-9.684 7.878-17.562 17.562-17.562 9.683 0 17.561 7.878 17.561 17.562 0 9.683-7.878 17.562-17.561 17.562-9.684 0-17.562-7.879-17.562-17.562zM72.947 60.811c0-7.409 6.028-13.437 13.437-13.437h36.299c7.409 0 13.437 6.028 13.437 13.437v15.087h-11.2V70.71a3.062 3.062 0 00-6.125 0v5.188H90.271V70.71a3.061 3.061 0 10-6.125 0v5.188H72.947V60.811zM45.373 185.618H6.125v-18.624h39.248v18.624zm78.785-51.148H84.91v-18.624h39.248v18.624zm78.784 51.148h-39.248v-18.624h39.248v18.624z" fill="#fff" fill-rule="nonzero"/></svg>