<svg viewBox="0 0 1724 1611" xmlns="http://www.w3.org/2000/svg" fill-rule="evenodd" clip-rule="evenodd" stroke-linejoin="round" stroke-miterlimit="2"><g fill-rule="nonzero"><path d="M583.229 1370.43l-130.027-29.704L881.431 454.61l130.026 29.697-428.228 886.123z" fill="#525353"/><path d="M583.4 1372.4l-130.025-29.692-217.623-264.531 130.02 29.697L583.4 1372.4z" fill="#232323"/><path d="M130.025 1574.42L0 1544.729l235.624-468.489 130.026 29.698-235.625 468.482zM742.877 523.036l329.989 67.929-51.548-276.967-278.441 209.038z" fill="#525353"/><g><path d="M953.232 1350.23l-166.192-37.958 547.315-1132.56 166.187 37.958-547.31 1132.56z" fill="#fff"/><path d="M953.448 1352.75l-166.192-37.952-278.145-338.092 166.181 37.952 278.156 338.092z" fill="#e1e1e1"/><path d="M373.97 1610.96l-166.18-37.952 301.152-598.784 166.187 37.958L373.97 1610.96zM1157.27 267.162l421.761 86.829L1513.145 0 1157.27 267.162z" fill="#fff"/></g><g><path d="M830.996 1586.87l-123.687-29.035 222.868-458.146 123.694 29.041-222.875 458.14zM1259.97 1378.45l-123.209-28.14 405.776-839.663 123.209 28.14-405.776 839.663z" fill="#525353"/><path d="M1260.13 1380.32l-123.209-28.14-206.212-250.656 123.203 28.14 206.218 250.656z" fill="#232323"/><path d="M1411.24 575.486l312.682 64.374-48.844-262.446-263.838 198.072z" fill="#525353"/></g></g></svg>