<?xml version="1.0" encoding="UTF-8" standalone="no"?><!DOCTYPE svg PUBLIC "-//W3C//DTD SVG 1.1//EN" "http://www.w3.org/Graphics/SVG/1.1/DTD/svg11.dtd"><svg width="100%" height="100%" viewBox="0 0 130 82" version="1.1" xmlns="http://www.w3.org/2000/svg" xmlns:xlink="http://www.w3.org/1999/xlink" xml:space="preserve" xmlns:serif="http://www.serif.com/" style="fill-rule:evenodd;clip-rule:evenodd;stroke-linejoin:round;stroke-miterlimit:2;"><g id="coffee"><g opacity="0.6"><path d="M126.689,32.687l-20.694,0l0,-3.351c0,-0.874 -1.13,-1.583 -2.524,-1.583l-54.512,0c-1.393,0 -2.523,0.709 -2.523,1.583c0,0.875 1.13,1.583 2.523,1.583l51.988,0l0,12.136c0,10.66 -9.074,20.568 -23.727,25.959l-48.446,0c-14.652,-5.391 -23.727,-15.299 -23.727,-25.959l0,-12.136l16.909,0c1.394,0 2.524,-0.708 2.524,-1.582c0,-0.875 -1.13,-1.583 -2.524,-1.583l-19.432,0c-1.394,0 -2.524,0.708 -2.524,1.583l0,13.718c0,5.983 2.564,11.85 7.415,16.966c3.272,3.45 7.516,6.497 12.487,8.993l-17.378,0c-1.394,0 -2.524,0.709 -2.524,1.583c0,5.761 7.472,10.448 16.656,10.448l78.739,0c9.185,0 16.656,-4.687 16.656,-10.448c0,-0.874 -1.13,-1.583 -2.523,-1.583l-23.435,0c4.575,-2.297 8.532,-5.062 11.684,-8.178l7.124,0c13.405,0 24.311,-6.84 24.311,-15.248l0,-11.318c0,-0.874 -1.129,-1.583 -2.523,-1.583Zm-19.961,39.493c-1.156,3.257 -5.798,5.699 -11.333,5.699l-78.739,0c-5.534,0 -10.177,-2.442 -11.332,-5.699l101.404,0Zm-0.733,-29.125l0,-0.871l8.075,0l0,3.404c0,3.171 -4.113,5.751 -9.169,5.751l-0.573,0c1.102,-2.692 1.667,-5.475 1.667,-8.284Zm18.17,2.533c0,6.662 -8.642,12.082 -19.264,12.082l-4.295,0c0.806,-1.032 1.525,-2.089 2.154,-3.166l2.141,0c7.839,0 14.217,-4 14.217,-8.916l0,-4.987c0,-0.874 -1.13,-1.582 -2.524,-1.582l-10.599,0l0,-3.166l18.17,0l0,9.735Z" style="fill-rule:nonzero;"/><path d="M55.407,8.76l-1.313,-1.034c-1.928,-1.517 -1.931,-3.639 -0.007,-5.159c0.867,-0.685 0.684,-1.68 -0.408,-2.224c-1.092,-0.544 -2.679,-0.429 -3.546,0.256c-3.392,2.681 -3.387,6.423 0.013,9.1l1.313,1.034c2.519,1.983 2.522,4.756 0.009,6.742l-1.345,1.063c-0.867,0.685 -0.685,1.681 0.407,2.224c0.464,0.231 1.018,0.343 1.567,0.343c0.744,0 1.48,-0.205 1.979,-0.599l1.346,-1.063c3.982,-3.147 3.976,-7.54 -0.015,-10.683Z" style="fill-rule:nonzero;"/><path d="M69.395,12.319l-1.313,-1.034c-1.927,-1.518 -1.93,-3.639 -0.006,-5.159c0.866,-0.685 0.684,-1.68 -0.408,-2.224c-1.092,-0.543 -2.679,-0.429 -3.546,0.256c-3.392,2.681 -3.387,6.423 0.012,9.1l1.313,1.034c2.519,1.983 2.523,4.756 0.009,6.742l-1.345,1.064c-0.867,0.684 -0.684,1.68 0.408,2.223c0.464,0.231 1.017,0.343 1.567,0.343c0.743,0 1.48,-0.205 1.979,-0.599l1.345,-1.063c3.982,-3.147 3.976,-7.54 -0.015,-10.683Z" style="fill-rule:nonzero;"/><path d="M41.419,12.319l-1.314,-1.033c-1.927,-1.518 -1.93,-3.64 -0.007,-5.16c0.867,-0.685 0.684,-1.68 -0.407,-2.224c-1.092,-0.543 -2.68,-0.428 -3.546,0.256c-3.392,2.681 -3.387,6.423 0.012,9.1l1.314,1.034c2.518,1.983 2.522,4.756 0.009,6.742l-1.346,1.063c-0.867,0.685 -0.684,1.681 0.408,2.224c0.464,0.231 1.017,0.344 1.567,0.344c0.743,0 1.48,-0.206 1.978,-0.599l1.346,-1.064c3.982,-3.147 3.976,-7.54 -0.014,-10.683Z" style="fill-rule:nonzero;"/><path d="M37.926,28.217c-0.47,-0.295 -1.121,-0.464 -1.785,-0.464c-0.663,0 -1.314,0.169 -1.784,0.464c-0.469,0.296 -0.739,0.703 -0.739,1.119c0,0.416 0.27,0.825 0.739,1.121c0.47,0.294 1.121,0.462 1.784,0.462c0.664,0 1.315,-0.168 1.785,-0.462c0.471,-0.296 0.739,-0.703 0.739,-1.121c0,-0.416 -0.268,-0.825 -0.739,-1.119Z" style="fill-rule:nonzero;"/><path d="M91.357,41.472c-1.393,0 -2.524,0.709 -2.524,1.583c0,5.876 -3.799,11.65 -10.424,15.842c-0.982,0.621 -0.974,1.623 0.016,2.239c0.492,0.306 1.134,0.458 1.776,0.458c0.65,0 1.299,-0.156 1.793,-0.468c7.554,-4.781 11.887,-11.367 11.887,-18.071c0,-0.874 -1.13,-1.583 -2.524,-1.583Z" style="fill-rule:nonzero;"/><path d="M74.167,63.193c-0.685,-0.761 -2.224,-1.03 -3.438,-0.601l-0.057,0.021c-1.214,0.429 -1.643,1.395 -0.958,2.156c0.463,0.516 1.319,0.806 2.2,0.806c0.42,0 0.846,-0.066 1.238,-0.205l0.057,-0.02c1.214,-0.43 1.643,-1.395 0.958,-2.157Z" style="fill-rule:nonzero;"/></g></g></svg>