<svg viewBox="0 0 1212 217" xmlns="http://www.w3.org/2000/svg" fill-rule="evenodd" clip-rule="evenodd" stroke-linejoin="round" stroke-miterlimit="2">
	<g fill="#fff" fill-rule="nonzero">
		<path d="M0 105.884C0 93.122 2.243 80.41 6.73 67.748c4.487-12.662 11.017-23.979 19.591-33.949 8.575-9.97 19.143-18.096 31.706-24.377C70.589 3.141 84.847 0 100.799 0c18.944 0 35.145 4.287 48.605 12.862 13.46 8.574 23.38 19.741 29.761 33.5l-16.451 10.169c-3.389-6.979-7.527-12.861-12.413-17.647-4.885-4.786-10.119-8.674-15.703-11.665-5.583-2.991-11.366-5.135-17.348-6.431-5.982-1.296-11.864-1.944-17.647-1.944-12.762 0-24.029 2.592-33.799 7.777-9.771 5.184-17.997 11.964-24.677 20.339-6.68 8.375-11.715 17.797-15.105 28.266-3.39 10.468-5.084 21.087-5.084 31.854 0 11.765 2.043 23.032 6.131 33.8 4.088 10.767 9.671 20.289 16.75 28.564 7.079 8.276 15.454 14.856 25.125 19.741 9.671 4.886 20.19 7.329 31.556 7.329 5.982 0 12.114-.748 18.395-2.244 6.281-1.495 12.363-3.888 18.246-7.178 5.882-3.291 11.316-7.378 16.301-12.264 4.985-4.885 9.173-10.817 12.563-17.797l17.348 8.974a64.946 64.946 0 01-14.357 21.087 94.406 94.406 0 01-20.639 15.404 102.842 102.842 0 01-24.078 9.571c-8.475 2.194-16.8 3.29-24.975 3.29-14.557 0-27.917-3.19-40.081-9.571-12.163-6.381-22.632-14.706-31.406-24.976-8.774-10.269-15.603-21.934-20.489-34.995C2.443 132.754 0 119.444 0 105.884zM254.241 216.554c-7.378 0-14.207-1.247-20.489-3.739-6.281-2.493-11.764-5.932-16.45-10.319a46.653 46.653 0 01-10.918-15.404c-2.592-5.883-3.888-12.214-3.888-18.994 0-6.779 1.595-13.061 4.785-18.843 3.191-5.783 7.677-10.768 13.46-14.956 5.783-4.187 12.662-7.428 20.639-9.721 7.976-2.293 16.75-3.44 26.321-3.44 7.976 0 16.052.698 24.228 2.094 8.175 1.396 15.454 3.39 21.835 5.982v-14.058c0-13.759-3.889-24.676-11.666-32.752-7.776-8.076-18.544-12.114-32.303-12.114-7.976 0-16.152 1.595-24.527 4.786-8.375 3.19-16.85 7.777-25.424 13.759l-7.179-13.46c20.14-13.559 39.682-20.339 58.625-20.339 19.542 0 34.896 5.483 46.063 16.451 11.167 10.967 16.75 26.122 16.75 45.464v70.29c0 5.584 2.492 8.375 7.478 8.375v17.947c-3.39.598-5.983.897-7.777.897-5.185 0-9.223-1.296-12.114-3.888-2.891-2.593-4.437-6.182-4.636-10.768l-.598-12.264c-7.179 9.372-16.202 16.551-27.07 21.536-10.867 4.985-22.582 7.478-35.145 7.478zM259.027 201c10.568 0 20.289-1.994 29.163-5.982 8.873-3.988 15.603-9.272 20.19-15.853 1.794-1.794 3.14-3.739 4.038-5.832.897-2.094 1.346-4.038 1.346-5.833v-25.424a124.72 124.72 0 00-21.087-5.982A118.045 118.045 0 00270.393 134c-14.357 0-26.022 2.991-34.995 8.973-8.974 5.982-13.46 13.859-13.46 23.63 0 4.786.947 9.272 2.841 13.46 1.895 4.187 4.487 7.826 7.777 10.917s7.228 5.534 11.815 7.328c4.586 1.795 9.471 2.692 14.656 2.692zM455.84 75.674c-13.759.399-25.724 4.188-35.893 11.366-10.17 7.179-17.348 17.049-21.536 29.612v96.911h-20.339V57.728h19.143v37.388c5.782-11.964 13.559-21.336 23.33-28.116 9.771-6.78 20.24-10.17 31.406-10.17 1.595 0 2.892.1 3.889.3v18.544zM542.581 216.554c-11.366 0-21.785-2.144-31.257-6.431-9.472-4.287-17.697-10.17-24.676-17.647-6.979-7.478-12.413-16.102-16.302-25.873-3.888-9.771-5.832-20.24-5.832-31.406 0-10.968 1.944-21.287 5.832-30.958 3.889-9.671 9.273-18.146 16.152-25.424 6.88-7.278 15.105-13.061 24.676-17.348 9.572-4.288 19.941-6.431 31.108-6.431 11.366 0 21.785 2.143 31.256 6.431 9.472 4.287 17.598 10.119 24.378 17.497 6.779 7.378 12.064 15.853 15.852 25.424 3.789 9.572 5.683 19.742 5.683 30.509v4.786c0 1.595-.099 2.692-.299 3.29H485.75c.599 8.375 2.543 16.102 5.833 23.181 3.29 7.079 7.528 13.211 12.712 18.395 5.185 5.185 11.117 9.223 17.797 12.114S535.901 201 543.478 201c4.985 0 9.97-.698 14.955-2.094 4.986-1.395 9.572-3.29 13.759-5.683a51.128 51.128 0 0011.366-8.823c3.39-3.49 5.983-7.328 7.777-11.516l17.648 4.786c-2.393 5.783-5.783 11.017-10.17 15.703s-9.472 8.774-15.255 12.263c-5.782 3.49-12.163 6.182-19.142 8.076-6.98 1.895-14.258 2.842-21.835 2.842zm57.428-89.134c-.598-8.375-2.542-16.003-5.832-22.882-3.29-6.879-7.478-12.812-12.563-17.797-5.085-4.985-10.967-8.873-17.647-11.665-6.68-2.792-13.809-4.188-21.386-4.188-7.578 0-14.756 1.396-21.536 4.188-6.78 2.792-12.712 6.68-17.797 11.665-5.085 4.985-9.172 10.967-12.263 17.947-3.091 6.979-4.936 14.556-5.534 22.732h114.558zM702.603 216.554c-12.163 0-24.028-1.994-35.594-5.982-11.565-3.989-21.535-9.771-29.91-17.349l9.272-13.759c8.774 7.179 17.697 12.563 26.77 16.152 9.073 3.59 18.794 5.384 29.163 5.384 12.563 0 22.583-2.542 30.06-7.627 7.478-5.085 11.217-12.313 11.217-21.685 0-4.387-.997-8.026-2.991-10.918-1.994-2.891-4.935-5.434-8.824-7.627-3.888-2.193-8.774-4.138-14.656-5.833-5.883-1.695-12.712-3.439-20.489-5.234-8.973-2.193-16.75-4.387-23.33-6.58-6.581-2.194-12.014-4.686-16.302-7.478-4.287-2.792-7.477-6.231-9.571-10.319-2.094-4.088-3.141-9.223-3.141-15.404 0-7.777 1.546-14.657 4.636-20.639 3.091-5.982 7.279-10.917 12.563-14.806 5.284-3.888 11.466-6.829 18.545-8.823 7.078-1.994 14.606-2.991 22.582-2.991 11.965 0 22.832 1.944 32.603 5.832 9.771 3.889 17.647 9.023 23.629 15.404l-9.87 11.965c-5.783-5.982-12.812-10.469-21.087-13.46-8.276-2.991-16.9-4.487-25.873-4.487-5.384 0-10.369.549-14.955 1.645-4.587 1.097-8.625 2.842-12.114 5.235-3.49 2.393-6.232 5.433-8.226 9.122-1.994 3.689-2.991 8.027-2.991 13.012 0 4.187.698 7.577 2.094 10.169 1.396 2.593 3.689 4.836 6.879 6.73 3.191 1.895 7.229 3.59 12.114 5.085 4.886 1.496 10.818 3.041 17.797 4.636 9.97 2.393 18.744 4.786 26.322 7.179 7.577 2.393 13.908 5.184 18.993 8.375 5.085 3.19 8.923 7.079 11.516 11.665 2.592 4.586 3.888 10.17 3.888 16.75 0 14.357-5.484 25.723-16.451 34.098s-25.723 12.563-44.268 12.563zM863.822 216.554c-11.366 0-21.785-2.144-31.257-6.431-9.471-4.287-17.697-10.17-24.676-17.647-6.979-7.478-12.413-16.102-16.301-25.873-3.889-9.771-5.833-20.24-5.833-31.406 0-10.968 1.944-21.287 5.833-30.958 3.888-9.671 9.272-18.146 16.151-25.424 6.88-7.278 15.105-13.061 24.677-17.348 9.571-4.288 19.94-6.431 31.107-6.431 11.366 0 21.785 2.143 31.257 6.431 9.471 4.287 17.597 10.119 24.377 17.497 6.78 7.378 12.064 15.853 15.853 25.424 3.788 9.572 5.683 19.742 5.683 30.509v4.786c0 1.595-.1 2.692-.299 3.29H806.992c.598 8.375 2.542 16.102 5.832 23.181 3.29 7.079 7.528 13.211 12.712 18.395 5.185 5.185 11.117 9.223 17.797 12.114S857.142 201 864.719 201c4.986 0 9.971-.698 14.956-2.094 4.985-1.395 9.571-3.29 13.759-5.683A51.174 51.174 0 00904.8 184.4c3.39-3.49 5.982-7.328 7.777-11.516l17.647 4.786c-2.393 5.783-5.783 11.017-10.17 15.703s-9.471 8.774-15.254 12.263c-5.783 3.49-12.164 6.182-19.143 8.076-6.979 1.895-14.258 2.842-21.835 2.842zm57.429-89.134c-.599-8.375-2.543-16.003-5.833-22.882-3.29-6.879-7.478-12.812-12.562-17.797-5.085-4.985-10.968-8.873-17.648-11.665s-13.809-4.188-21.386-4.188-14.756 1.396-21.536 4.188c-6.779 2.792-12.712 6.68-17.797 11.665-5.084 4.985-9.172 10.967-12.263 17.947-3.091 6.979-4.935 14.556-5.533 22.732h114.558zM961.331 135.197c0-10.968 1.894-21.337 5.683-31.108 3.789-9.77 9.123-18.295 16.002-25.573 6.88-7.279 15.105-13.011 24.677-17.199 9.571-4.187 20.14-6.281 31.705-6.281 14.756 0 27.618 3.34 38.585 10.02 10.967 6.68 19.243 15.703 24.826 27.069l-19.741 6.281c-4.387-7.976-10.519-14.207-18.395-18.694-7.877-4.486-16.601-6.73-26.172-6.73-7.976 0-15.404 1.595-22.284 4.786-6.879 3.19-12.861 7.527-17.946 13.011-5.085 5.484-9.073 12.014-11.964 19.592-2.892 7.577-4.337 15.852-4.337 24.826 0 8.773 1.495 17.049 4.486 24.825 2.991 7.777 7.079 14.507 12.264 20.19 5.184 5.683 11.216 10.17 18.096 13.46 6.879 3.29 14.207 4.935 21.984 4.935 4.985 0 9.92-.698 14.806-2.093 4.885-1.396 9.422-3.34 13.609-5.833 4.188-2.493 7.777-5.334 10.768-8.525 2.991-3.19 5.085-6.58 6.281-10.169l20.04 5.982c-2.193 5.583-5.384 10.718-9.571 15.404-4.188 4.686-9.123 8.774-14.806 12.263-5.683 3.49-11.964 6.182-18.844 8.076-6.879 1.895-14.008 2.842-21.386 2.842-11.366 0-21.835-2.144-31.406-6.431-9.571-4.287-17.847-10.17-24.826-17.647-6.979-7.478-12.413-16.102-16.301-25.873-3.889-9.771-5.833-20.24-5.833-31.406zM1211.09 206.085c-1.197.598-2.941 1.396-5.235 2.393-2.293.997-4.935 1.994-7.926 2.991-2.991.997-6.381 1.894-10.17 2.692-3.788.797-7.776 1.196-11.964 1.196-4.387 0-8.574-.598-12.562-1.794-3.989-1.197-7.478-3.041-10.469-5.534-2.991-2.492-5.384-5.633-7.179-9.422-1.794-3.788-2.692-8.175-2.692-13.16V73.88h-21.535V57.728h21.535V5.085h20.34v52.643h35.892V73.88h-35.892v105.884c.398 5.782 2.442 10.02 6.131 12.712s7.927 4.038 12.712 4.038c5.783 0 10.868-.948 15.255-2.842 4.387-1.894 7.178-3.24 8.375-4.038l5.384 16.451z"/>
	</g>
</svg>