<svg viewBox="0 0 225 214" xmlns="http://www.w3.org/2000/svg" fill-rule="evenodd" clip-rule="evenodd" stroke-linejoin="round" stroke-miterlimit="2"><g fill="#fff" fill-rule="nonzero" stroke="#000" stroke-width="3.82"><path d="M61.051 135.004a4.32 4.32 0 001.58-5.898 4.319 4.319 0 10-1.58 5.898z"/><path d="M43.355 164.807l21.746 37.666c4.692 8.137 15.247 11.149 23.595 6.323 8.26-4.773 11.098-15.327 6.32-23.593l-12.954-22.44 11.218-6.477a4.32 4.32 0 001.581-5.899l-5.615-9.725c.669-.13 5.072-.994 82.706-16.223 9.597-.521 15.347-11.018 10.5-19.409l-14.351-24.855 9.171-13.89c.9-1.367.954-3.123.136-4.539l-8.636-14.958a4.327 4.327 0 00-3.999-2.151l-16.612.997L132.23 18.04c-2.308-3.998-6.442-6.418-11.056-6.476l-.166-.001c-4.459 0-8.508 2.219-10.906 5.972L53.695 89.392l-36.671 21.172c-14.423 8.324-19.419 26.827-11.063 41.289 7.634 13.224 23.729 18.426 37.394 12.954zm44.184 24.715c2.385 4.126.973 9.405-3.164 11.795-4.151 2.401-9.438.926-11.796-3.16l-21.589-37.4 14.957-8.636c24.987 43.285 21.19 36.708 21.592 37.401zm-9.795-34.24l-4.318-7.479 7.479-4.318 4.318 7.479-7.479 4.318zm84.884-101.865l5.967 10.336-5.321 8.059-10.286-17.817 9.64-.578zM117.324 22.27c1.159-1.896 2.998-2.092 3.743-2.071.737.008 2.574.237 3.682 2.157l50.224 86.992c1.636 2.832-.353 6.393-3.633 6.474-.589.013-.861.119-2.369.401l-53.126-92.018c1.115-1.434 1.258-1.572 1.479-1.935zm-7.225 9.255l49.914 86.456-75.331 14.775-22.906-39.673 48.323-61.558zM13.44 147.535a21.56 21.56 0 01-2.898-10.773c0-7.701 4.139-14.873 10.8-18.719l33.655-19.431 21.59 37.394-33.655 19.433c-10.311 5.951-23.54 2.405-29.492-7.904z"/><path d="M47.673 137.742a4.317 4.317 0 00-5.898-1.58l-7.479 4.318a4.324 4.324 0 01-5.898-1.581 4.32 4.32 0 00-7.479 4.318c3.554 6.157 11.481 8.327 17.695 4.741l7.479-4.318a4.317 4.317 0 001.58-5.898zM216.572 20.799l-24.061 13.389a4.319 4.319 0 004.2 7.546l24.059-13.389a4.317 4.317 0 10-4.198-7.546zM214.049 65.52l-16.683-4.469a4.318 4.318 0 10-2.235 8.34l16.685 4.47a4.317 4.317 0 102.233-8.341zM172.124 5.111l-4.475 16.685a4.319 4.319 0 008.343 2.236l4.473-16.684a4.319 4.319 0 00-8.341-2.237z"/></g></svg>