<svg viewBox="0 0 197 197" xmlns="http://www.w3.org/2000/svg" fill-rule="evenodd" clip-rule="evenodd" stroke-linejoin="round" stroke-miterlimit="2"><g fill="#fff" fill-rule="nonzero"><g stroke="#000"><path d="M1.566 158.405l8.615 11.486-9.001 21.001a3.243 3.243 0 002.983 4.526c.536 0 1.075-.132 1.563-.403L70.662 159.3a3.238 3.238 0 001.683-2.844 3.24 3.24 0 00-1.683-2.844L5.726 117.898a3.241 3.241 0 00-3.744.439 3.243 3.243 0 00-.802 3.684l9.001 21.001-8.615 11.486a3.25 3.25 0 000 3.897zm14.675 13.825l30.48-7.172-35.858 19.722 5.378-12.55zm30.48-24.375l-30.48-7.172-5.378-12.55 35.858 19.722zm-31.495-.738l39.693 9.339-39.693 9.34-7.004-9.34 7.004-9.339z" stroke-width="1.83"/><path d="M143.775.611c-27.549 0-50.095 21.572-51.784 48.702H83.43l-8.789-8.789-4.591 4.591 4.198 4.198H60.982c-18.799 0-34.091 15.294-34.091 34.091s15.292 34.091 34.091 34.091h35.993l8.789 8.789 4.592-4.591-4.198-4.198h61.967c9.845 0 17.858 8.011 17.858 17.857 0 9.847-8.013 17.858-17.858 17.858h-29.5l-8.789-8.79-4.591 4.592 4.198 4.198H78.839v6.493h50.604l-4.198 4.198 4.591 4.591 8.789-8.789h29.5c13.428 0 24.351-10.923 24.351-24.351 0-13.428-10.923-24.351-24.351-24.351h-61.967l4.198-4.197-4.592-4.592-8.789 8.789H60.982c-15.216 0-27.598-12.379-27.598-27.597 0-15.218 12.382-27.598 27.598-27.598h13.266l-4.198 4.198 4.591 4.591 8.789-8.789h8.561c1.689 27.13 24.235 48.702 51.784 48.702 28.643 0 51.948-23.305 51.948-51.948 0-28.644-23.305-51.949-51.948-51.949zm0 97.403c-23.969 0-43.615-18.659-45.291-42.208h9.74c1.648 18.175 16.953 32.468 35.551 32.468 19.693 0 35.714-16.021 35.714-35.714 0-19.694-16.021-35.715-35.714-35.715-18.598 0-33.903 14.293-35.551 32.468h-9.74c1.676-23.549 21.322-42.208 45.291-42.208 25.064 0 45.454 20.39 45.454 45.455 0 25.064-20.39 45.454-45.454 45.454zm-7.445-33.419l9.74-9.74a3.246 3.246 0 000-4.591l-9.74-9.74-4.591 4.591 4.198 4.198h-21.192c1.622-14.588 14.015-25.974 29.03-25.974 16.113 0 29.221 13.109 29.221 29.221 0 16.111-13.108 29.221-29.221 29.221-15.015 0-27.408-11.387-29.03-25.975h21.192l-4.198 4.198 4.591 4.591z" stroke-width="1.22"/></g><path d="M163.255 52.56c0-10.743-8.738-19.481-19.48-19.481v6.493c7.162 0 12.987 5.827 12.987 12.988s-5.825 12.987-12.987 12.987v6.493c10.742 0 19.48-8.738 19.48-19.48z"/></g></svg>